<svg width="256" height="115" viewBox="0 0 256 115" fill="none" xmlns="http://www.w3.org/2000/svg">
<path fill-rule="evenodd" clip-rule="evenodd" d="M22.1242 82.7616C17.065 82.7616 12.9542 81.2918 9.76321 77.7177C6.65953 74.2425 5.56321 68.9904 5.56321 64.1549C5.56321 57.8026 8.33664 51.1286 11.9856 46.5312L14.7792 43.4026L17.255 41.4067C17.6217 41.1312 17.7926 41.0294 18.2035 40.7846C24.2093 37.1971 32.6054 36.8995 38.3405 41.1821C45.4339 46.4784 45.6115 58.0723 42.5721 66.2275L41.2013 69.4493C37.7587 76.68 30.5664 82.7616 22.1242 82.7616V82.7616ZM0.00192187 64.7673V64.7539C0.00288187 58.9046 1.91905 52.1011 5.07745 47.3597C5.32897 46.9824 5.56128 46.5677 5.8368 46.1856L7.37472 44.0986C7.6272 43.776 7.89504 43.4122 8.19072 43.1011C9.54048 41.6861 10.2384 40.7635 11.951 39.3686C14.9568 36.9226 17.7907 35.279 21.6634 34.2154C26.7782 32.8109 33.2323 33.0893 37.9565 35.159C40.1001 36.0989 41.2492 36.8285 43.054 38.28C44.3222 39.3005 45.8592 41.2704 46.7606 42.6701C47.4844 43.7942 48.0576 45.0528 48.5453 46.3229C51.2227 53.2973 50.328 61.4861 47.6813 68.0726C46.3536 71.376 44.3078 74.9558 42.1613 77.4163C41.1149 78.6163 39.7449 80.2675 38.4921 81.24L36.4051 82.8988C34.4995 84.3216 31.0118 85.8806 28.7712 86.5056C23.208 88.0579 17.233 87.7852 11.9491 85.678C10.2615 85.0051 8.44609 83.7293 7.16449 82.4851C6.71905 82.0531 6.52223 82.0281 5.83103 81.2813L3.51072 78.2841C1.04353 74.183 0.000959999 69.5645 0 64.7664L0.00192187 64.7673Z" fill="#EF801C"/>
<path fill-rule="evenodd" clip-rule="evenodd" d="M185.44 84.8149C185.44 87.2159 186.773 87.5932 189.792 87.5932H213.607C215.487 87.5932 216.774 87.1506 217.037 85.4533C217.323 83.6063 215.867 83.0015 213.969 83.0015C208.61 83.0015 203.12 82.8345 197.771 83.1225C195.476 83.2463 192.832 83.0015 190.76 83.0015L191.381 79.3938C191.77 77.0524 195.715 53.9961 195.715 53.2799H219.53C221.102 53.2799 222.31 52.5062 222.31 50.8636C222.31 48.8409 219.595 48.9302 217.837 48.9302C214.334 48.9302 210.493 48.7718 207.194 49.0444C205.736 49.1644 201.226 49.0502 199.222 49.0511C198.185 49.0511 197.439 48.9302 196.563 48.9302C196.563 47.7273 198.013 40.4697 198.013 39.5059H220.136C221.458 39.5059 224.125 39.2975 224.125 37.5724C224.125 35.5833 223.661 34.9142 220.861 34.9142H197.53C192.665 34.9142 193.187 37.1932 192.523 41.5084C192.345 42.6681 192.154 43.7107 191.969 44.8214C191.233 49.2527 190.528 53.6889 189.793 58.1116L185.891 81.2764C185.704 82.3535 185.441 83.4719 185.441 84.813L185.44 84.8149Z" fill="#EF801C"/>
<path fill-rule="evenodd" clip-rule="evenodd" d="M85.1059 47.8445C83.879 47.8445 81.4762 47.6803 80.5853 47.9174C79.4957 48.2083 79.3824 48.9907 78.6989 49.1731C78.4771 46.5082 74.1475 47.4163 72.5616 47.7514C71.0131 48.0787 69.6653 48.7411 68.3434 49.4554L65.9875 51.0883C65.3885 51.5357 65.1802 51.8496 64.7962 51.9514C64.7962 50.3386 65.735 47.6016 62.7408 47.6016C60.9389 47.6016 60.3811 49.1683 60.0547 50.5958L59.2358 55.4554C58.6963 58.7002 58.1856 61.9104 57.5943 65.1725C56.9991 68.4557 56.5114 71.663 55.9719 74.9078C55.704 76.5187 55.4199 78.2198 55.1597 79.775C55.0176 80.6246 54.8967 81.3494 54.7632 82.1577C54.4627 83.9741 53.592 86.7139 56.2954 87.0317C58.7386 87.3187 59.2963 84.6029 59.5987 82.7625C60.3408 78.2573 63.0835 62.1043 63.9024 59.6381C64.4957 57.8515 65.3328 55.8998 66.8304 54.7114C68.1063 53.6986 70.4256 52.7962 72.4627 52.487C74.4778 52.1808 78.0057 52.3094 78.456 50.6237C78.9888 51.0134 78.7171 51.4464 79.4976 51.8774C80.833 52.6147 82.8979 52.3171 84.3792 52.1942C84.3562 53.2339 80.832 73.3661 80.4067 75.8918C79.8893 78.9686 79.441 82.9929 81.9955 85.1443C83.1946 86.1542 85.1347 86.5401 87.0576 86.7302C88.1683 86.8397 89.017 86.8061 90.1834 86.8685C90.7574 86.8992 91.0272 87.0009 91.7568 86.9952C92.4806 86.9904 92.639 86.8713 93.3206 86.8637C94.512 86.8502 95.4585 86.8713 96.312 86.47C97.3017 86.0044 97.6771 85.3862 97.6771 84.2102C97.6771 82.8537 96.672 82.5321 95.4864 82.4131L91.7539 82.3987C85.0051 82.3987 84.1795 82.006 85.416 74.6141L89.0217 53.087C89.1283 52.2605 88.9449 52.1866 89.8061 52.1789C92.0573 52.1597 94.3344 52.1923 96.5894 52.1933C98.6179 52.1933 100.699 52.0176 100.699 49.535C100.699 48.3552 99.5913 47.8435 98.4019 47.8435H89.9405C89.9405 46.3613 90.3446 44.784 90.6154 43.4438C90.7661 42.7008 90.8822 41.9462 90.9936 41.2848C91.2739 39.6298 91.7616 37.0906 89.2137 37.0906C88.8691 37.0906 88.0666 37.3459 87.8122 37.5015C87.4282 37.7367 87.1325 38.0371 86.8934 38.3962C86.305 39.2813 85.7482 43.3277 85.5802 44.5747C85.5062 45.12 85.416 45.5722 85.3382 46.1453C85.2643 46.6925 85.103 47.2598 85.103 47.8435L85.1059 47.8445Z" fill="#EF801C"/>
<path fill-rule="evenodd" clip-rule="evenodd" d="M116.657 31.1712C116.657 34.0195 116.851 35.7705 118.642 38.2483C119.457 39.3763 121.252 41.1638 122.459 41.8032C122.338 41.2819 121.781 40.6646 121.395 40.0876C121.008 39.5097 120.692 38.9414 120.404 38.2992C119.096 35.3788 119.204 31.6733 120.146 28.6176C120.342 27.984 120.541 27.4569 120.807 26.8627C122.393 23.3174 125.699 18.815 128.694 16.5005C128.988 16.2729 129.062 16.1472 129.32 15.9187L132.077 13.7213C143.53 5.13983 162.404 -0.122884 176.131 3.14015C178.952 3.81119 181.302 4.52063 183.512 5.79263C185.805 7.11263 187.41 8.25887 188.981 10.3546C194.121 17.2128 191.024 25.2125 186.081 31.0877C185.12 32.2301 183.457 34.1097 182.348 34.968C181.993 35.2425 181.877 35.4355 181.521 35.712C178.29 38.2243 176.194 39.9004 172.384 41.8041C171.749 42.1219 168.669 43.6051 168.394 43.9785C170.425 43.8096 178.421 40.632 180.414 39.8016C181.392 39.3945 182.273 38.9174 183.159 38.5584C186.783 37.0915 193.823 32.2704 196.766 29.8061C197.195 29.447 197.351 29.1974 197.839 28.8249C198.909 28.007 202.477 23.3414 203.168 21.9485C204.844 18.5721 205.725 14.4326 203.895 10.7914C202.891 8.7936 201.978 7.72416 200.336 6.37536C196.767 3.44544 191.702 1.85663 187.142 0.955195C183.375 0.210235 178.369 0 174.438 0C173.438 0 172.97 0.213121 171.898 0.240961C171.297 0.256321 171.293 0.348475 170.695 0.366715C167.98 0.447354 167.067 0.462715 164.248 0.931195C156.919 2.14943 149.273 4.0752 142.454 6.93792L138.605 8.64863C136.729 9.42239 134.897 10.5331 133.133 11.5152C130.341 13.0704 128.272 14.6957 125.824 16.655L122.187 20.0265C121.923 20.3261 121.884 20.448 121.582 20.7513L119.711 23.1101C118.252 25.0425 116.655 28.7539 116.655 31.1712H116.657Z" fill="#8A8A8A"/>
<path fill-rule="evenodd" clip-rule="evenodd" d="M104.327 87.1112C105.306 87.1112 106.135 86.5775 106.578 85.9784C107.556 84.6565 108.179 79.0127 108.417 77.3048C109.265 71.1925 110.446 60.9225 115.114 56.2098C118.273 53.0197 121.151 51.7113 125.844 51.7113C128.065 51.7113 129.742 52.5129 131.135 53.9135C133.946 56.7378 132.838 62.493 132.218 66.0556L129.609 81.5701C129.355 83.0936 128.118 86.9903 130.921 86.9903C132.32 86.9903 133.233 86.6754 133.781 85.0155C134.19 83.7743 135.411 75.8869 135.687 74.2348C136.103 71.7493 136.48 69.4712 136.896 66.9848C137.916 60.885 139.446 55.1471 134.639 50.2895C133.101 48.7353 129.984 47.2396 126.931 47.2396C124.482 47.2396 123.697 47.2252 121.277 47.9922C119.644 48.5097 117.873 49.4409 116.482 50.4498L113.783 52.5849C113.215 53.1109 113.096 53.3154 112.425 53.7637C112.425 53.1484 112.597 52.2469 112.702 51.6249C112.813 50.9567 112.924 50.1676 113.046 49.4313L114.893 38.7129C115.256 36.7094 115.922 33.9503 113.028 33.9503C110.534 33.9503 110.221 37.2719 109.954 39.093C109.599 41.5141 109.201 43.8479 108.815 46.1701L102.892 81.3292C102.608 83.0159 101.489 87.1122 104.326 87.1122L104.327 87.1112Z" fill="#F0801E"/>
<path fill-rule="evenodd" clip-rule="evenodd" d="M162.351 83.1245C159.847 83.1245 157.722 82.7136 155.965 81.6528C153.665 80.2636 152.039 78.0912 151.278 75.4646C150.981 74.4432 150.84 73.5945 150.673 72.4445C150.378 70.4112 150.616 67.4611 150.954 65.6937C151.772 61.4217 153.897 56.6976 157.563 54.1757C161.363 51.5616 166.482 50.4797 170.693 52.5552C174.988 54.671 177.219 58.7299 177.219 64.1558C177.219 67.296 177.05 69.7257 175.959 72.5625C173.803 78.1757 169.409 83.1245 162.35 83.1245H162.351ZM145.306 69.7133C145.306 73.9747 145.832 77.04 147.868 80.4441L149.145 82.1894C149.375 82.4477 149.411 82.5427 149.63 82.7913C149.996 83.2089 150.254 83.3539 150.654 83.7014C154.872 87.3811 161.477 88.032 166.875 86.7984C169.178 86.2723 172.37 84.7133 174.106 83.1523L176.166 81.2236C181.204 75.9926 183.396 67.8221 182.196 60.6326C181.999 59.4518 181.718 58.2288 181.332 57.2669C180.026 54.0106 178.753 52.2941 175.962 50.1898C171.975 47.184 166.285 46.776 161.474 47.8128C157.111 48.7536 154.194 50.8742 151.198 53.8541C147.502 57.5299 145.306 64.5561 145.306 69.7133V69.7133Z" fill="#EF801C"/>
<path fill-rule="evenodd" clip-rule="evenodd" d="M227.387 50.8646C227.387 54.335 228.335 57.1603 229.707 59.2991C230.967 61.2652 231.831 62.1071 233.515 63.4675C234.02 63.8755 234.677 64.27 235.004 64.7586C233.402 65.6063 229.139 69.1094 227.781 70.4668C227.364 70.8834 227.106 71.111 226.733 71.5938C225.744 72.8735 225.202 73.293 223.812 75.1996C222.059 77.6034 220.135 81.4406 220.135 84.573C220.135 87.3695 222.995 88.3036 224.608 85.0569C225.488 83.2857 226.404 80.3606 227.393 78.6575C229.906 74.3279 232.47 72.0758 236.298 69.1929C236.922 68.7225 238.72 67.4159 239.356 67.4159C240.174 67.4159 244.054 71.2223 245.209 72.9234C246.47 74.7791 247.499 77.6044 247.812 79.8662C247.9 80.4959 247.882 80.9663 247.956 81.6556C248.088 82.8815 248.137 87.1103 250.114 87.1103C252.993 87.1103 253.149 83.6351 252.913 81.5346C252.76 80.182 252.963 79.7903 252.544 77.6745C252.142 75.645 251.271 73.1452 250.165 71.4738C249.078 69.8303 247.756 67.9458 246.196 66.742C245.774 66.4166 244.237 65.0658 243.95 64.6367C244.511 63.7996 248.22 62.013 250.758 58.9958C252.254 57.2159 256.762 51.4761 254.491 48.4243C254.08 47.8732 253.618 47.6015 252.775 47.6015C250.011 47.6015 250.054 51.6527 248.869 53.8463C247.39 56.5843 245.395 58.0723 242.914 59.855C239.729 62.1436 239.901 62.5247 237.681 60.7545C237.075 60.2707 236.681 59.9702 236.124 59.4105C235.064 58.3478 234.275 57.5635 233.554 56.1801C230.771 50.8444 234.266 47.6006 229.929 47.6006C228.128 47.6006 227.391 49.3219 227.391 50.8627L227.387 50.8646Z" fill="#EF801C"/>
<path fill-rule="evenodd" clip-rule="evenodd" d="M194.506 104.146C194.514 104.507 195.245 107.789 195.352 108.013L192.088 108.134V98.5891H198.132V108.013C197.167 108.013 197.366 107.946 196.561 108.134L195.352 103.665C195.007 103.847 194.822 103.936 194.506 104.147V104.146ZM190.638 98.71V107.771C190.638 111.103 193.003 110.188 195.836 110.188C196.154 111.55 196.482 112.918 196.803 114.296H198.011L197.302 111.004C197.155 110.439 196.972 110.317 197.527 110.195C198.574 109.966 199.583 110.7 199.583 106.805C199.583 105.331 199.712 98.8636 199.364 97.7203C199.135 96.9695 198.713 96.5346 197.769 96.5346C196.321 96.5346 192.089 96.2745 191.215 96.9916C190.853 97.2892 190.638 98.0572 190.638 98.7091V98.71Z" fill="#8A8A8A"/>
<path fill-rule="evenodd" clip-rule="evenodd" d="M169 108.133H165.252C165.24 107.587 165.131 107.653 165.131 107.046V104.146H169.241C170.518 104.146 170.208 105.636 170.208 107.167C170.208 107.887 169.72 108.133 168.999 108.133H169ZM169.967 101.971C169.122 101.971 168.787 102.092 167.912 102.092C166.808 102.092 166.054 102.186 165.131 101.971C165.131 100.685 165.252 99.7544 165.252 98.588H169.242C170.369 98.588 170.088 99.5164 170.088 101.125C170.088 101.537 170.015 101.6 169.967 101.971V101.971ZM163.681 96.8965V110.187L168.881 110.189C171.701 110.208 171.659 108.735 171.659 106.321C171.659 105.728 171.598 104.97 171.466 104.46C171.217 103.49 170.937 103.678 170.572 103.18C170.815 102.849 171.538 102.765 171.538 101.126C171.538 95.6754 171.815 96.5346 164.044 96.5346C163.765 96.5346 163.681 96.6181 163.681 96.8975V96.8965Z" fill="#8B8B8B"/>
<path fill-rule="evenodd" clip-rule="evenodd" d="M100.458 104.388H104.568V108.134C102.615 108.134 101.09 108.013 99.1285 108.013C99.1161 107.458 99.0076 107.383 99.0076 106.08C98.7244 106.215 98.181 106.41 97.7989 106.443C97.7989 107.048 97.6665 107.006 97.6953 107.512C97.7077 107.735 97.7759 108.225 97.8162 108.601C97.8997 109.39 98.1397 109.866 98.8616 110.093C99.3829 110.256 102.805 110.309 103.722 110.309C104.67 110.309 105.332 109.908 105.608 109.172C106.04 108.018 105.962 104.373 105.586 103.13C105.317 102.235 104.578 102.093 103.481 102.093H99.3714V98.589H104.449V100.402C105.861 99.7247 105.778 100.265 105.778 98.589C105.778 96.6844 104.644 96.525 102.756 96.5346C101.148 96.5423 99.165 96.0335 98.4776 97.2134C98.0716 97.9103 97.9708 99.5087 97.9228 100.412C97.894 100.967 98.0274 101.001 98.0428 101.608C98.0927 103.598 98.3932 104.388 100.459 104.388H100.458Z" fill="#8A8A8A"/>
<path fill-rule="evenodd" clip-rule="evenodd" d="M149.537 108.133C147.868 108.133 146.757 108.385 146.757 107.77V98.9509C146.757 98.3941 147.438 98.588 148.812 98.588C152.7 98.588 152.56 101.099 152.56 104.145C152.56 105.273 152.306 106.281 151.839 106.929C151.599 107.264 151.361 107.53 150.953 107.735C150.622 107.902 149.98 108.132 149.538 108.132L149.537 108.133ZM145.668 96.5346H145.305V110.188C147.1 110.188 151.01 110.883 152.647 108.948C154.16 107.164 154.009 104.808 154.009 102.456C154.009 95.5669 149.516 96.5356 145.667 96.5356L145.668 96.5346Z" fill="#8A8A8A"/>
<path fill-rule="evenodd" clip-rule="evenodd" d="M125.481 101.126C125.481 100.185 125.602 99.7007 125.602 98.71C126.322 98.543 129.588 98.3635 129.959 98.9472C130.246 99.3993 130.334 101.905 129.954 102.697C128.825 102.96 126.792 103.095 125.602 102.818C125.602 102.043 125.481 101.819 125.481 101.126ZM124.152 110.188H125.602C125.602 109.498 125.481 109.353 125.481 108.617C125.481 107.402 125.321 105.71 125.723 104.871H127.537L129.31 108.174C130.628 110.813 130.257 110.188 132.251 110.188L129.229 104.871C131.972 104.871 131.648 103.69 131.648 99.7967C131.648 99.1305 131.567 98.063 131.429 97.5993C131.213 96.8784 130.854 96.5347 129.955 96.5347H124.153V110.188H124.152Z" fill="#8A8A8A"/>
<path fill-rule="evenodd" clip-rule="evenodd" d="M86.0725 99.5558V106.926C86.0725 108.178 86.1935 108.952 86.1935 110.188H87.5231V100.039L92.8424 108.858C93.0594 109.187 93.4722 109.777 93.5682 110.188H94.6559V96.5347H93.3263V106.684L88.7259 98.9587C87.1266 96.2707 87.5442 96.5356 86.1944 96.5356C86.1944 97.6924 86.0735 98.3807 86.0735 99.5558H86.0725Z" fill="#8B8B8B"/>
<path fill-rule="evenodd" clip-rule="evenodd" d="M110.854 102.818H110.37L110.491 98.5891C111.982 98.5891 114.06 98.4028 115.206 98.9519C115.419 99.8678 115.327 100.516 115.327 101.61C115.327 102.84 114.78 102.721 113.655 102.839C112.547 102.954 112.065 102.818 110.854 102.818V102.818ZM109.041 96.5356C109.041 97.3794 108.92 97.7145 108.92 98.5891V110.188C110.975 110.188 110.516 110.506 110.342 104.872L115.327 104.871C116.488 104.871 116.777 103.631 116.777 102.455C116.777 97.342 117.393 96.5126 113.754 96.5356C112.804 96.5414 112.383 96.4098 111.46 96.4118C110.47 96.4137 109.982 96.5346 109.041 96.5346V96.5356Z" fill="#8B8B8B"/>
<path fill-rule="evenodd" clip-rule="evenodd" d="M134.669 96.6556V110.188H142.163C142.163 107.568 143.07 108.133 136.119 108.133V104.508C136.119 104.23 136.204 104.145 136.482 104.145H139.746V102.092H136.482C136.204 102.092 136.119 102.008 136.119 101.729V98.5881H142.042V96.5346C139.617 96.5346 137.064 96.405 134.669 96.6556Z" fill="#8B8B8B"/>
<path fill-rule="evenodd" clip-rule="evenodd" d="M202.727 107.892C202.727 109.347 203.071 110.164 204.535 110.194C205.745 110.218 209.364 110.434 210.179 109.904C211.075 109.321 210.774 107.543 210.914 106.529L210.946 96.8966C210.946 96.3811 210.482 96.5337 209.375 96.5337V108.132C208.53 108.132 208.195 108.011 207.319 108.011H204.176V96.8956C204.176 96.3906 203.757 96.5327 202.726 96.5327V107.89L202.727 107.892Z" fill="#8B8B8B"/>
<path fill-rule="evenodd" clip-rule="evenodd" d="M217.717 98.951H217.959C218.178 99.8918 218.579 100.873 218.883 101.894L219.773 104.992H216.025L217.717 98.951V98.951ZM213.124 110.188H214.453C214.617 109.845 214.768 109.045 214.887 108.567C215.125 107.604 215.313 107.506 215.421 107.047H220.377L220.819 108.539C220.959 109.073 221.212 109.636 221.224 110.189H222.917L219.092 98.304C218.906 97.7337 218.688 97.0636 218.565 96.5356H217.235L216.222 99.8716C215.957 100.661 213.174 109.61 213.126 110.188H213.124Z" fill="#8A8A8A"/>
<path fill-rule="evenodd" clip-rule="evenodd" d="M237.663 98.5891H241.048V110.188H242.499V98.5891H246.005C246.005 97.2153 246.2 96.5356 245.642 96.5356H237.663V98.5891V98.5891Z" fill="#8B8B8B"/>
<path fill-rule="evenodd" clip-rule="evenodd" d="M250.476 104.992V110.188H251.927V104.992C251.927 103.16 255.55 98.0265 255.675 96.5347H254.103L251.202 102.213L248.301 96.5347H246.729C247.05 97.9103 248.871 101.059 249.671 102.657C250.03 103.375 250.477 103.993 250.477 104.992H250.476Z" fill="#8A8A8A"/>
<path fill-rule="evenodd" clip-rule="evenodd" d="M177.825 110.188H178.55V105.234C178.55 104.069 178.834 103.698 179.235 102.898C179.888 101.596 182.157 97.4101 182.176 96.5356C180.505 96.5356 180.667 96.1237 179.379 99.2975C179.129 99.9128 178.271 101.914 177.825 102.214C177.733 101.873 177.624 101.803 177.439 101.513L176.376 99.3128C176.142 98.7906 175.95 98.3605 175.718 97.7951C175.107 96.3023 175.004 96.5365 173.714 96.5365C173.078 96.5365 173.556 97.1432 173.886 97.9352C174.122 98.5026 174.368 98.9327 174.64 99.477C175.187 100.57 175.715 101.505 176.252 102.578C177.426 104.924 177.108 105.361 177.098 108.74C177.091 110.916 177.104 110.19 177.824 110.19L177.825 110.188Z" fill="#8A8A8A"/>
<path fill-rule="evenodd" clip-rule="evenodd" d="M224.97 98.1052V110.187H232.103V108.132L226.421 108.011L226.57 102.213C226.604 100.206 226.421 98.5574 226.421 96.5337H225.091C225.091 97.223 224.97 97.3689 224.97 98.1043V98.1052Z" fill="#8B8B8B"/>
<path fill-rule="evenodd" clip-rule="evenodd" d="M119.316 98.1052V107.891C119.316 108.84 119.437 109.265 119.437 110.187H120.888C120.888 108.474 120.767 107.197 120.767 105.475V96.5347H119.437C119.437 97.2239 119.316 97.3699 119.316 98.1052Z" fill="#8B8B8B"/>
<path fill-rule="evenodd" clip-rule="evenodd" d="M81.479 110.188H82.8086C82.8086 109.031 82.9296 108.343 82.9296 107.168V99.7977C82.9296 98.5459 82.8086 97.7712 82.8086 96.5356H81.479V110.189V110.188Z" fill="#8B8B8B"/>
<path fill-rule="evenodd" clip-rule="evenodd" d="M234.278 110.188H235.729L235.73 104.267C235.737 102.727 235.444 100.996 235.696 99.1603C235.834 98.1523 235.626 97.3161 235.609 96.5347H234.279V110.188H234.278Z" fill="#8B8B8B"/>
</svg>
