<svg width="256" height="115" viewBox="0 0 256 115" fill="none" xmlns="http://www.w3.org/2000/svg">
<path fill-rule="evenodd" clip-rule="evenodd" d="M22.1241 82.7616C17.0649 82.7616 12.9542 81.2918 9.76319 77.7177C6.65951 74.2425 5.56319 68.9904 5.56319 64.1549C5.56319 57.8026 8.33662 51.1286 11.9856 46.5312L14.7792 43.4026L17.255 41.4067C17.6217 41.1312 17.7926 41.0295 18.2035 40.7847C24.2092 37.1971 32.6054 36.8995 38.3404 41.1821C45.4339 46.4784 45.6115 58.0723 42.5721 66.2275L41.2012 69.4493C37.7587 76.68 30.5664 82.7616 22.1241 82.7616V82.7616ZM0.00192187 64.7673V64.7539C0.00288187 58.9046 1.91903 52.1011 5.07743 47.3597C5.32895 46.9824 5.56128 46.5677 5.8368 46.1856L7.37472 44.0986C7.6272 43.776 7.89504 43.4122 8.19072 43.1011C9.54048 41.6861 10.2384 40.7635 11.951 39.3687C14.9568 36.9226 17.7907 35.279 21.6633 34.2154C26.7782 32.8109 33.2323 33.0893 37.9564 35.1591C40.1001 36.0989 41.2492 36.8285 43.054 38.28C44.3222 39.3005 45.8591 41.2704 46.7606 42.6701C47.4844 43.7942 48.0576 45.0528 48.5452 46.3229C51.2227 53.2973 50.328 61.4861 47.6812 68.0726C46.3536 71.376 44.3078 74.9558 42.1612 77.4163C41.1148 78.6163 39.7449 80.2675 38.4921 81.24L36.4051 82.8989C34.4995 84.3216 31.0118 85.8806 28.7712 86.5056C23.208 88.0579 17.2329 87.7852 11.9491 85.678C10.2614 85.0051 8.44606 83.7292 7.16446 82.4851C6.71902 82.0531 6.52223 82.0281 5.83103 81.2812L3.51072 78.2841C1.04353 74.183 0.000959999 69.5645 0 64.7664L0.00192187 64.7673Z" fill="white"/>
<path fill-rule="evenodd" clip-rule="evenodd" d="M185.44 84.8159C185.44 87.2169 186.773 87.5942 189.792 87.5942H213.607C215.487 87.5942 216.774 87.1516 217.037 85.4543C217.323 83.6073 215.867 83.0025 213.969 83.0025C208.61 83.0025 203.12 82.8354 197.771 83.1234C195.476 83.2473 192.832 83.0025 190.76 83.0025L191.381 79.3948C191.77 77.0534 195.715 53.9971 195.715 53.2809H219.53C221.102 53.2809 222.31 52.5072 222.31 50.8646C222.31 48.8419 219.595 48.9311 217.837 48.9311C214.334 48.9311 210.493 48.7727 207.194 49.0454C205.736 49.1654 201.226 49.0512 199.222 49.0521C198.185 49.0521 197.439 48.9311 196.563 48.9311C196.563 47.7283 198.013 40.4707 198.013 39.5068H220.136C221.458 39.5068 224.125 39.2985 224.125 37.5734C224.125 35.5843 223.661 34.9152 220.861 34.9152H197.53C192.665 34.9152 193.187 37.1942 192.523 41.5094C192.345 42.6691 192.154 43.7116 191.969 44.8223C191.233 49.2537 190.528 53.6899 189.793 58.1126L185.891 81.2774C185.704 82.3545 185.441 83.4729 185.441 84.814L185.44 84.8159Z" fill="white"/>
<path fill-rule="evenodd" clip-rule="evenodd" d="M85.1058 47.8445C83.8789 47.8445 81.476 47.6803 80.5852 47.9174C79.4956 48.2083 79.3823 48.9907 78.6988 49.1731C78.477 46.5082 74.1474 47.4163 72.5615 47.7514C71.013 48.0787 69.6652 48.7411 68.3433 49.4554L65.9874 51.0883C65.3884 51.5357 65.1801 51.8496 64.7961 51.9514C64.7961 50.3386 65.7349 47.6016 62.7407 47.6016C60.9388 47.6016 60.381 49.1683 60.0546 50.5959L59.2358 55.4554C58.6962 58.7002 58.1855 61.9104 57.5941 65.1725C56.9989 68.4557 56.5113 71.663 55.9718 74.9078C55.7039 76.5187 55.4198 78.2198 55.1596 79.775C55.0175 80.6246 54.8965 81.3494 54.7631 82.1578C54.4626 83.9741 53.5919 86.7139 56.2953 87.0317C58.7385 87.3187 59.2962 84.6029 59.5986 82.7625C60.3407 78.2573 63.0834 62.1043 63.9023 59.6381C64.4956 57.8515 65.3327 55.8998 66.8303 54.7114C68.1061 53.6986 70.4255 52.7962 72.4626 52.4871C74.4777 52.1808 78.0057 52.3095 78.4559 50.6237C78.9887 51.0135 78.717 51.4464 79.4975 51.8774C80.8328 52.6147 82.8978 52.3171 84.3791 52.1943C84.356 53.2339 80.8319 73.3661 80.4066 75.8918C79.8892 78.9686 79.4408 82.9929 81.9954 85.1443C83.1944 86.1542 85.1346 86.5401 87.0575 86.7302C88.1682 86.8397 89.0168 86.8061 90.1832 86.8685C90.7573 86.8992 91.0271 87.001 91.7567 86.9952C92.4805 86.9904 92.6389 86.8714 93.3205 86.8637C94.5119 86.8502 95.4584 86.8713 96.3119 86.4701C97.3016 86.0045 97.677 85.3862 97.677 84.2102C97.677 82.8537 96.6719 82.5321 95.4863 82.4131L91.7538 82.3987C85.005 82.3987 84.1794 82.0061 85.4159 74.6141L89.0216 53.0871C89.1282 52.2605 88.9448 52.1866 89.806 52.1789C92.0572 52.1597 94.3343 52.1923 96.5893 52.1933C98.6178 52.1933 100.699 52.0176 100.699 49.5351C100.699 48.3552 99.5912 47.8435 98.4018 47.8435H89.9403C89.9403 46.3613 90.3445 44.784 90.6152 43.4439C90.766 42.7008 90.8821 41.9463 90.9935 41.2848C91.2738 39.6298 91.7615 37.0906 89.2136 37.0906C88.869 37.0906 88.0664 37.3459 87.812 37.5015C87.428 37.7367 87.1324 38.0371 86.8933 38.3962C86.3048 39.2813 85.748 43.3277 85.58 44.5747C85.5061 45.12 85.4159 45.5722 85.3381 46.1453C85.2642 46.6925 85.1029 47.2598 85.1029 47.8435L85.1058 47.8445Z" fill="white"/>
<path fill-rule="evenodd" clip-rule="evenodd" d="M116.656 31.1712C116.656 34.0195 116.85 35.7705 118.641 38.2483C119.456 39.3763 121.251 41.1638 122.458 41.8032C122.337 41.2819 121.78 40.6646 121.394 40.0877C121.007 39.5097 120.691 38.9414 120.403 38.2992C119.095 35.3788 119.203 31.6733 120.145 28.6176C120.341 27.984 120.54 27.4569 120.806 26.8627C122.392 23.3174 125.698 18.815 128.693 16.5005C128.987 16.2729 129.061 16.1472 129.319 15.9187L132.076 13.7213C143.529 5.13983 162.403 -0.122884 176.13 3.14015C178.951 3.81119 181.301 4.52064 183.511 5.79264C185.804 7.11264 187.409 8.25886 188.98 10.3545C194.12 17.2128 191.023 25.2125 186.08 31.0877C185.12 32.2301 183.456 34.1097 182.347 34.968C181.992 35.2425 181.876 35.4355 181.52 35.712C178.289 38.2243 176.193 39.9004 172.383 41.8041C171.748 42.1219 168.668 43.6051 168.393 43.9785C170.424 43.8095 178.42 40.632 180.413 39.8016C181.391 39.3945 182.272 38.9174 183.158 38.5584C186.782 37.0915 193.822 32.2704 196.765 29.8061C197.194 29.447 197.35 29.1974 197.838 28.8249C198.908 28.007 202.476 23.3414 203.168 21.9484C204.843 18.5721 205.724 14.4326 203.894 10.7913C202.89 8.79358 201.977 7.72414 200.335 6.37535C196.766 3.44543 191.701 1.85663 187.141 0.955194C183.374 0.210235 178.368 0 174.437 0C173.437 0 172.969 0.213121 171.897 0.240961C171.297 0.256321 171.292 0.348486 170.694 0.366726C167.979 0.447366 167.066 0.462715 164.247 0.931194C156.918 2.14943 149.272 4.0752 142.453 6.93792L138.604 8.64864C136.728 9.4224 134.896 10.5331 133.132 11.5152C130.34 13.0704 128.271 14.6957 125.823 16.655L122.186 20.0265C121.922 20.326 121.883 20.448 121.581 20.7513L119.71 23.1101C118.251 25.0425 116.654 28.7539 116.654 31.1712H116.656Z" fill="white"/>
<path fill-rule="evenodd" clip-rule="evenodd" d="M104.326 87.1114C105.305 87.1114 106.134 86.5776 106.577 85.9786C107.555 84.6566 108.178 79.0128 108.416 77.305C109.264 71.1927 110.445 60.9226 115.113 56.21C118.272 53.0199 121.15 51.7114 125.843 51.7114C128.064 51.7114 129.741 52.513 131.134 53.9136C133.945 56.738 132.837 62.4932 132.217 66.0557L129.608 81.5702C129.354 83.0938 128.117 86.9904 130.92 86.9904C132.319 86.9904 133.232 86.6755 133.78 85.0157C134.189 83.7744 135.41 75.8871 135.686 74.2349C136.102 71.7495 136.479 69.4714 136.895 66.985C137.915 60.8851 139.445 55.1472 134.638 50.2896C133.1 48.7354 129.983 47.2397 126.93 47.2397C124.481 47.2397 123.696 47.2253 121.276 47.9923C119.643 48.5098 117.872 49.441 116.481 50.45L113.782 52.585C113.214 53.1111 113.095 53.3156 112.424 53.7639C112.424 53.1485 112.596 52.2471 112.701 51.625C112.812 50.9568 112.923 50.1677 113.045 49.4314L114.892 38.713C115.255 36.7095 115.921 33.9504 113.027 33.9504C110.533 33.9504 110.22 37.272 109.953 39.0932C109.598 41.5143 109.2 43.848 108.814 46.1703L102.891 81.3293C102.607 83.016 101.488 87.1123 104.325 87.1123L104.326 87.1114Z" fill="white"/>
<path fill-rule="evenodd" clip-rule="evenodd" d="M162.351 83.1244C159.847 83.1244 157.722 82.7136 155.965 81.6528C153.665 80.2636 152.039 78.0912 151.278 75.4646C150.981 74.4432 150.84 73.5945 150.673 72.4444C150.378 70.4112 150.616 67.4611 150.954 65.6937C151.772 61.4217 153.896 56.6976 157.563 54.1757C161.363 51.5616 166.482 50.4797 170.693 52.5552C174.988 54.671 177.219 58.7299 177.219 64.1558C177.219 67.296 177.05 69.7257 175.959 72.5625C173.803 78.1756 169.409 83.1244 162.35 83.1244H162.351ZM145.306 69.7132C145.306 73.9747 145.832 77.04 147.868 80.4441L149.144 82.1894C149.375 82.4476 149.411 82.5427 149.63 82.7913C149.996 83.2089 150.254 83.3539 150.654 83.7014C154.872 87.3811 161.477 88.0319 166.875 86.7983C169.178 86.2723 172.37 84.7132 174.106 83.1523L176.166 81.2236C181.204 75.9926 183.396 67.8221 182.196 60.6326C181.999 59.4518 181.718 58.2288 181.332 57.2669C180.026 54.0105 178.753 52.2941 175.962 50.1898C171.975 47.184 166.285 46.776 161.474 47.8128C157.111 48.7536 154.194 50.8742 151.198 53.8541C147.502 57.5299 145.306 64.5561 145.306 69.7132V69.7132Z" fill="white"/>
<path fill-rule="evenodd" clip-rule="evenodd" d="M227.387 50.8656C227.387 54.336 228.335 57.1612 229.707 59.3001C230.967 61.2662 231.831 62.1081 233.515 63.4684C234.02 63.8764 234.677 64.271 235.004 64.7596C233.402 65.6073 229.139 69.1103 227.781 70.4678C227.364 70.8844 227.106 71.1119 226.733 71.5948C225.744 72.8745 225.202 73.294 223.812 75.2006C222.059 77.6044 220.135 81.4415 220.135 84.574C220.135 87.3705 222.995 88.3046 224.608 85.0578C225.488 83.2866 226.404 80.3615 227.393 78.6585C229.906 74.3289 232.471 72.0767 236.298 69.1939C236.922 68.7235 238.72 67.4169 239.356 67.4169C240.174 67.4169 244.054 71.2233 245.209 72.9244C246.47 74.7801 247.499 77.6054 247.812 79.8671C247.9 80.4969 247.882 80.9673 247.956 81.6566C248.088 82.8825 248.137 87.1113 250.114 87.1113C252.993 87.1113 253.149 83.6361 252.913 81.5356C252.76 80.183 252.963 79.7913 252.544 77.6754C252.142 75.646 251.271 73.1462 250.165 71.4748C249.079 69.8313 247.756 67.9468 246.196 66.743C245.774 66.4175 244.237 65.0668 243.95 64.6377C244.511 63.8006 248.22 62.014 250.758 58.9967C252.254 57.2169 256.762 51.4771 254.491 48.4252C254.08 47.8742 253.618 47.6025 252.775 47.6025C250.011 47.6025 250.054 51.6537 248.869 53.8473C247.39 56.5852 245.395 58.0732 242.914 59.8559C239.729 62.1446 239.901 62.5257 237.681 60.7555C237.075 60.2716 236.681 59.9711 236.124 59.4115C235.064 58.3487 234.275 57.5644 233.554 56.1811C230.771 50.8454 234.266 47.6016 229.929 47.6016C228.128 47.6016 227.391 49.3228 227.391 50.8636L227.387 50.8656Z" fill="white"/>
<path fill-rule="evenodd" clip-rule="evenodd" d="M194.506 104.146C194.514 104.507 195.245 107.789 195.352 108.013L192.088 108.134V98.5891H198.132V108.013C197.167 108.013 197.366 107.946 196.561 108.134L195.352 103.665C195.007 103.847 194.822 103.936 194.506 104.147V104.146ZM190.638 98.71V107.771C190.638 111.103 193.003 110.188 195.836 110.188C196.154 111.55 196.482 112.918 196.803 114.296H198.011L197.302 111.004C197.155 110.439 196.972 110.317 197.527 110.195C198.574 109.966 199.583 110.7 199.583 106.805C199.583 105.331 199.712 98.8636 199.364 97.7202C199.135 96.9695 198.713 96.5346 197.769 96.5346C196.321 96.5346 192.089 96.2745 191.215 96.9916C190.853 97.2892 190.638 98.0572 190.638 98.7091V98.71Z" fill="white"/>
<path fill-rule="evenodd" clip-rule="evenodd" d="M168.999 108.133H165.251C165.239 107.587 165.13 107.653 165.13 107.046V104.147H169.24C170.517 104.147 170.207 105.636 170.207 107.167C170.207 107.887 169.719 108.133 168.998 108.133H168.999ZM169.966 101.971C169.121 101.971 168.786 102.092 167.911 102.092C166.807 102.092 166.053 102.186 165.13 101.971C165.13 100.685 165.251 99.7546 165.251 98.5882H169.241C170.368 98.5882 170.087 99.5165 170.087 101.125C170.087 101.537 170.014 101.6 169.966 101.971V101.971ZM163.68 96.8966V110.187L168.88 110.189C171.7 110.208 171.658 108.735 171.658 106.321C171.658 105.729 171.597 104.97 171.465 104.46C171.216 103.49 170.935 103.678 170.571 103.18C170.814 102.849 171.537 102.765 171.537 101.126C171.537 95.6755 171.814 96.5347 164.043 96.5347C163.764 96.5347 163.68 96.6183 163.68 96.8976V96.8966Z" fill="white"/>
<path fill-rule="evenodd" clip-rule="evenodd" d="M100.458 104.388H104.568V108.134C102.615 108.134 101.09 108.013 99.1285 108.013C99.1161 107.458 99.0076 107.383 99.0076 106.08C98.7244 106.215 98.181 106.41 97.7989 106.443C97.7989 107.048 97.6665 107.006 97.6953 107.512C97.7077 107.735 97.7759 108.225 97.8162 108.601C97.8997 109.39 98.1398 109.866 98.8617 110.093C99.383 110.256 102.805 110.309 103.722 110.309C104.67 110.309 105.332 109.908 105.608 109.172C106.04 108.018 105.962 104.373 105.586 103.13C105.317 102.235 104.578 102.093 103.481 102.093H99.3714V98.5891H104.449V100.402C105.861 99.7247 105.778 100.265 105.778 98.5891C105.778 96.6844 104.644 96.525 102.756 96.5346C101.148 96.5423 99.165 96.0335 98.4777 97.2134C98.0716 97.9103 97.9708 99.5087 97.9228 100.412C97.894 100.967 98.0274 101.001 98.0428 101.608C98.0927 103.598 98.3932 104.388 100.459 104.388H100.458Z" fill="white"/>
<path fill-rule="evenodd" clip-rule="evenodd" d="M149.537 108.133C147.868 108.133 146.757 108.385 146.757 107.77V98.9509C146.757 98.3941 147.438 98.588 148.812 98.588C152.7 98.588 152.56 101.099 152.56 104.145C152.56 105.273 152.306 106.281 151.839 106.929C151.599 107.264 151.361 107.53 150.953 107.735C150.622 107.902 149.98 108.132 149.538 108.132L149.537 108.133ZM145.668 96.5346H145.305V110.188C147.1 110.188 151.01 110.883 152.648 108.948C154.16 107.164 154.009 104.808 154.009 102.456C154.009 95.5669 149.516 96.5356 145.667 96.5356L145.668 96.5346Z" fill="white"/>
<path fill-rule="evenodd" clip-rule="evenodd" d="M125.48 101.126C125.48 100.185 125.601 99.7008 125.601 98.71C126.321 98.543 129.587 98.3635 129.958 98.9472C130.245 99.3993 130.333 101.905 129.953 102.697C128.824 102.96 126.791 103.095 125.601 102.818C125.601 102.043 125.48 101.819 125.48 101.126V101.126ZM124.151 110.188H125.601C125.601 109.499 125.48 109.353 125.48 108.617C125.48 107.402 125.32 105.71 125.722 104.871H127.536L129.309 108.174C130.627 110.813 130.256 110.188 132.25 110.188L129.228 104.871C131.971 104.871 131.647 103.69 131.647 99.7967C131.647 99.1305 131.566 98.063 131.428 97.5993C131.212 96.8784 130.853 96.5347 129.954 96.5347H124.152V110.188H124.151Z" fill="white"/>
<path fill-rule="evenodd" clip-rule="evenodd" d="M86.0725 99.5558V106.926C86.0725 108.178 86.1935 108.952 86.1935 110.188H87.5231V100.039L92.8424 108.858C93.0594 109.186 93.4722 109.777 93.5682 110.188H94.6559V96.5346H93.3263V106.684L88.726 98.9586C87.1266 96.2706 87.5442 96.5356 86.1944 96.5356C86.1944 97.6924 86.0735 98.3807 86.0735 99.5558H86.0725Z" fill="white"/>
<path fill-rule="evenodd" clip-rule="evenodd" d="M110.854 102.818H110.37L110.491 98.5891C111.982 98.5891 114.06 98.4028 115.206 98.9519C115.419 99.8678 115.327 100.516 115.327 101.61C115.327 102.84 114.78 102.721 113.655 102.839C112.547 102.954 112.065 102.818 110.854 102.818V102.818ZM109.04 96.5356C109.04 97.3794 108.92 97.7145 108.92 98.5891V110.188C110.975 110.188 110.516 110.506 110.342 104.872L115.327 104.871C116.488 104.871 116.777 103.631 116.777 102.455C116.777 97.342 117.393 96.5126 113.754 96.5356C112.804 96.5414 112.383 96.4098 111.46 96.4118C110.47 96.4137 109.982 96.5346 109.04 96.5346V96.5356Z" fill="white"/>
<path fill-rule="evenodd" clip-rule="evenodd" d="M134.668 96.6556V110.188H142.162C142.162 107.568 143.069 108.133 136.118 108.133V104.508C136.118 104.23 136.203 104.145 136.481 104.145H139.745V102.092H136.481C136.203 102.092 136.118 102.008 136.118 101.729V98.588H142.041V96.5346C139.616 96.5346 137.063 96.405 134.668 96.6556Z" fill="white"/>
<path fill-rule="evenodd" clip-rule="evenodd" d="M202.727 107.892C202.727 109.347 203.072 110.164 204.535 110.194C205.745 110.218 209.364 110.434 210.179 109.904C211.075 109.321 210.775 107.543 210.914 106.529L210.946 96.8966C210.946 96.381 210.482 96.5337 209.375 96.5337V108.132C208.53 108.132 208.195 108.011 207.32 108.011H204.176V96.8956C204.176 96.3907 203.757 96.5327 202.726 96.5327V107.89L202.727 107.892Z" fill="white"/>
<path fill-rule="evenodd" clip-rule="evenodd" d="M217.716 98.951H217.958C218.177 99.8918 218.578 100.873 218.882 101.894L219.772 104.992H216.024L217.716 98.951V98.951ZM213.123 110.188H214.452C214.616 109.845 214.767 109.045 214.886 108.567C215.124 107.604 215.312 107.506 215.42 107.047H220.376L220.818 108.538C220.958 109.073 221.211 109.636 221.223 110.189H222.916L219.091 98.304C218.905 97.7337 218.687 97.0636 218.564 96.5356H217.234L216.221 99.8716C215.956 100.661 213.173 109.61 213.125 110.188H213.123Z" fill="white"/>
<path fill-rule="evenodd" clip-rule="evenodd" d="M237.662 98.5891H241.047V110.188H242.498V98.5891H246.004C246.004 97.2153 246.199 96.5356 245.641 96.5356H237.662V98.5891V98.5891Z" fill="white"/>
<path fill-rule="evenodd" clip-rule="evenodd" d="M250.476 104.992V110.188H251.927V104.992C251.927 103.16 255.55 98.0265 255.675 96.5347H254.103L251.202 102.213L248.301 96.5347H246.729C247.05 97.9103 248.871 101.059 249.671 102.657C250.03 103.375 250.477 103.993 250.477 104.992H250.476Z" fill="white"/>
<path fill-rule="evenodd" clip-rule="evenodd" d="M177.824 110.188H178.55V105.234C178.55 104.069 178.834 103.698 179.235 102.898C179.888 101.596 182.157 97.4101 182.176 96.5356C180.505 96.5356 180.667 96.1237 179.379 99.2975C179.129 99.9128 178.271 101.914 177.824 102.214C177.733 101.873 177.624 101.803 177.439 101.513L176.376 99.3128C176.142 98.7906 175.95 98.3605 175.718 97.7951C175.107 96.3023 175.004 96.5365 173.714 96.5365C173.078 96.5365 173.556 97.1432 173.886 97.9352C174.122 98.5026 174.368 98.9327 174.64 99.477C175.187 100.57 175.715 101.505 176.252 102.578C177.426 104.924 177.108 105.361 177.098 108.74C177.091 110.916 177.104 110.19 177.824 110.19L177.824 110.188Z" fill="white"/>
<path fill-rule="evenodd" clip-rule="evenodd" d="M224.969 98.1062V110.188H232.102V108.133L226.42 108.012L226.569 102.214C226.603 100.207 226.42 98.5583 226.42 96.5347H225.09C225.09 97.2239 224.969 97.3699 224.969 98.1053V98.1062Z" fill="white"/>
<path fill-rule="evenodd" clip-rule="evenodd" d="M119.315 98.1062V107.892C119.315 108.841 119.436 109.266 119.436 110.188H120.887C120.887 108.475 120.766 107.198 120.766 105.476V96.5356H119.436C119.436 97.2249 119.315 97.3708 119.315 98.1062V98.1062Z" fill="white"/>
<path fill-rule="evenodd" clip-rule="evenodd" d="M81.479 110.188H82.8086C82.8086 109.031 82.9295 108.343 82.9295 107.168V99.7977C82.9295 98.5459 82.8086 97.7712 82.8086 96.5356H81.479V110.189V110.188Z" fill="white"/>
<path fill-rule="evenodd" clip-rule="evenodd" d="M234.277 110.188H235.728L235.729 104.267C235.736 102.727 235.443 100.996 235.695 99.1603C235.833 98.1523 235.625 97.3161 235.608 96.5347H234.278V110.188H234.277Z" fill="white"/>
</svg>
