<svg width="30" height="36" viewBox="0 0 30 36" fill="none" xmlns="http://www.w3.org/2000/svg">
<path d="M3 36C3 36 0 36 0 33C0 30 3 21 15 21C27 21 30 30 30 33C30 36 27 36 27 36H3ZM15 18C17.3869 18 19.6761 17.0518 21.364 15.364C23.0518 13.6761 24 11.3869 24 9C24 6.61305 23.0518 4.32387 21.364 2.63604C19.6761 0.948212 17.3869 0 15 0C12.6131 0 10.3239 0.948212 8.63604 2.63604C6.94821 4.32387 6 6.61305 6 9C6 11.3869 6.94821 13.6761 8.63604 15.364C10.3239 17.0518 12.6131 18 15 18Z" fill="#2E2E2E"/>
</svg>
