<svg width="48" height="48" viewBox="0 0 48 48" fill="none" xmlns="http://www.w3.org/2000/svg">
<path d="M24 48C10.7445 48 0 37.2555 0 24C0 10.7445 10.7445 0 24 0C37.2555 0 48 10.7445 48 24C48 37.2555 37.2555 48 24 48ZM23.625 6C13.89 6 6 13.89 6 23.625C6 33.36 13.89 41.25 23.625 41.25C33.36 41.25 41.25 33.36 41.25 23.625C41.25 18.9506 39.3931 14.4676 36.0878 11.1622C32.7824 7.85691 28.2994 6 23.625 6ZM23.625 36.855C20.1162 36.855 16.7511 35.4611 14.27 32.98C11.7889 30.4989 10.395 27.1338 10.395 23.625C10.395 20.1162 11.7889 16.7511 14.27 14.27C16.7511 11.7889 20.1162 10.395 23.625 10.395C27.1338 10.395 30.4989 11.7889 32.98 14.27C35.4611 16.7511 36.855 20.1162 36.855 23.625C36.855 27.1338 35.4611 30.4989 32.98 32.98C30.4989 35.4611 27.1338 36.855 23.625 36.855ZM19.23 23.64L23.64 30.24L28.02 23.64L23.64 17.025L19.23 23.64Z" fill="#2E2E2E"/>
</svg>
