<svg width="38" height="48" viewBox="0 0 38 48" fill="none" xmlns="http://www.w3.org/2000/svg">
<path d="M14.868 5.23512C15.063 2.43012 17.724 0.261121 20.592 0.975121L21.375 1.17312C22.764 1.52112 23.997 2.54112 24.411 4.06812C25.071 6.51612 26.01 11.6011 24.597 17.5981C25.0388 17.5371 25.4819 17.4861 25.926 17.4451C28.065 17.2501 30.933 17.2291 33.474 18.0751C35.028 18.5941 36.456 20.1181 37.074 21.8941C37.626 23.4901 37.554 25.3801 36.372 27.0931C36.546 27.4501 36.681 27.8191 36.786 28.1821C37.017 28.9921 37.125 29.8831 37.125 30.7501C37.125 31.6171 37.017 32.5081 36.786 33.3181C36.669 33.7231 36.516 34.1371 36.306 34.5301C36.813 35.6911 36.627 36.9871 36.297 37.9741C35.9592 38.9487 35.4647 39.8617 34.833 40.6771C34.995 41.1331 35.061 41.6131 35.061 42.0721C35.061 42.9871 34.794 43.9471 34.302 44.8081C33.3 46.5661 31.311 48.0001 28.5 48.0001H18C16.185 48.0001 14.79 47.7571 13.602 47.3461C12.5805 46.9731 11.6043 46.486 10.692 45.8941L10.548 45.8041C9.036 44.8831 7.551 43.9771 4.344 43.6381C2.046 43.3921 0 41.5381 0 39.0001V27.0001C0 24.4501 2.055 22.7041 4.071 22.1551C6.618 21.4591 8.793 19.7941 10.467 17.9251C12.147 16.0441 13.209 14.0851 13.584 13.0081C14.181 11.2831 14.652 8.39112 14.868 5.23812V5.23512Z" fill="#2E2E2E"/>
</svg>
