<svg width="44" height="48" viewBox="0 0 44 48" fill="none" xmlns="http://www.w3.org/2000/svg">
<path d="M20.707 0V7.61692H23.2942V0H20.7068H20.707ZM10.1426 2.289L8.02296 3.77312L12.3911 10.011L14.5096 8.5268L10.1426 2.289ZM33.8581 2.289L29.4912 8.52684L31.6101 10.011L35.9781 3.77312L33.8584 2.289H33.8581ZM22.0001 9.70096C15.671 9.70096 10.5404 13.5443 10.5404 18.286L17.0512 38.0039H26.95L33.4604 18.286C33.4604 13.5444 28.33 9.70096 22.0007 9.70096H22.0001ZM1.41912 11.9869L0.535156 14.4195L7.68912 17.024L8.57636 14.5926L1.41896 11.9869H1.41912ZM42.5816 11.9869L35.4242 14.5928L36.3084 17.0245L43.4658 14.4195L42.5816 11.9869ZM8.23076 23.1072L0.874756 25.0803L1.5422 27.5775L8.8982 25.6073L8.23088 23.1072H8.23076ZM35.77 23.1072L35.103 25.6073L42.459 27.5772L43.126 25.0799L35.77 23.1072V23.1072ZM16.9069 39.4413V42.8687H27.0944V39.4418H16.907L16.9069 39.4413ZM16.9069 44.5726V48H27.0944V44.5731H16.907L16.9069 44.5726Z" fill="#2E2E2E"/>
</svg>
