<svg width="42" height="40" viewBox="0 0 42 40" fill="none" xmlns="http://www.w3.org/2000/svg">
<path d="M40.465 14.0456C41.8894 18.1482 41.7982 22.5811 40.2061 26.6291C38.614 30.6771 35.6138 34.1044 31.6895 36.3581C27.7651 38.6117 23.1454 39.5604 18.5755 39.051C14.0056 38.5416 9.75195 36.6039 6.50064 33.5505C3.24934 30.497 1.18995 26.5058 0.654651 22.2206C0.119356 17.9355 1.13936 13.6062 3.55015 9.93105C5.96094 6.25594 9.62194 3.44929 13.9426 1.96381C18.2634 0.478328 22.9919 0.400626 27.3654 1.74324L24.6826 4.25604C24.5341 4.39284 24.401 4.54404 24.2781 4.70004C20.7762 4.0374 17.1399 4.44893 13.9068 5.87375C10.6737 7.29858 8.01564 9.66105 6.32561 12.6118C4.63558 15.5625 4.00337 18.9448 4.52247 22.2584C5.04157 25.5721 6.68442 28.6411 9.20806 31.0117C11.7317 33.3823 15.0021 34.9285 18.5356 35.4216C22.0692 35.9148 25.6782 35.3287 28.8289 33.7501C31.9797 32.1715 34.5049 29.6842 36.031 26.656C37.5572 23.6278 38.0033 20.2195 37.3034 16.9352C37.4785 16.8187 37.6429 16.6887 37.7949 16.5464L40.4624 14.0456H40.465ZM33.5402 17.6C34.0898 20.1276 33.756 22.7539 32.5882 25.0897C31.4205 27.4254 29.481 29.3462 27.0573 30.5673C24.6336 31.7884 21.8547 32.2448 19.1326 31.8688C16.4104 31.4929 13.8899 30.3046 11.9448 28.4801C9.9997 26.6556 8.73346 24.2921 8.33383 21.7399C7.9342 19.1876 8.42246 16.5826 9.72621 14.311C11.03 12.0394 13.0798 10.2222 15.5718 9.12862C18.0639 8.03508 20.8655 7.72349 23.5613 8.24004V11.9504C21.6506 11.4157 19.6043 11.4938 17.7463 12.1722C15.8884 12.8507 14.3248 14.0908 13.3033 15.6962C12.2818 17.3015 11.8607 19.1805 12.1067 21.0356C12.3526 22.8906 13.2516 24.6158 14.6612 25.9379C16.0709 27.26 17.9107 28.1035 19.8893 28.3349C21.8679 28.5662 23.8723 28.1722 25.5852 27.2153C27.298 26.2583 28.6215 24.793 29.3459 23.0514C30.0704 21.3099 30.1545 19.3915 29.585 17.6H33.5402ZM20.9962 23.6C21.5851 23.6003 22.1661 23.4736 22.6945 23.2297C23.2228 22.9859 23.6842 22.6313 24.043 22.1935C24.4019 21.7558 24.6485 21.2465 24.7638 20.7051C24.8791 20.1637 24.8601 19.6046 24.7082 19.0712L28.7581 15.272L28.8349 15.2H35.0813C35.2495 15.2003 35.4161 15.1695 35.5716 15.1094C35.7271 15.0493 35.8684 14.961 35.9875 14.8496L41.1075 10.0496C41.287 9.88181 41.4093 9.66779 41.4588 9.43473C41.5084 9.20167 41.4831 8.96006 41.386 8.74052C41.2889 8.52099 41.1245 8.33342 40.9136 8.20159C40.7027 8.06976 40.4548 7.99961 40.2013 8.00004H33.8013V2.00004C33.8012 1.76288 33.7262 1.53106 33.5857 1.33384C33.4452 1.13662 33.2456 0.982849 33.0119 0.891945C32.7783 0.801041 32.5211 0.777079 32.273 0.823086C32.0248 0.869092 31.7968 0.983003 31.6176 1.15044L26.4976 5.95044C26.3783 6.06188 26.2837 6.1943 26.2191 6.34009C26.1546 6.48588 26.1213 6.64218 26.1213 6.80004V12.656C26.095 12.6794 26.0694 12.7034 26.0445 12.728L21.9946 16.52C21.4251 16.3768 20.8282 16.3583 20.2499 16.466C19.6716 16.5737 19.1275 16.8048 18.6598 17.1412C18.192 17.4776 17.8131 17.9105 17.5523 18.4062C17.2916 18.902 17.156 19.4473 17.1562 20C17.1562 20.9548 17.5607 21.8705 18.2809 22.5456C19.001 23.2208 19.9777 23.6 20.9962 23.6Z" fill="black"/>
</svg>
