<svg width="48" height="34" viewBox="0 0 48 34" fill="none" xmlns="http://www.w3.org/2000/svg">
<path d="M0 17C0 17 9 0.5 24 0.5C39 0.5 48 17 48 17C48 17 39 33.5 24 33.5C9 33.5 0 17 0 17ZM24 27.5C26.7848 27.5 29.4555 26.3938 31.4246 24.4246C33.3938 22.4555 34.5 19.7848 34.5 17C34.5 14.2152 33.3938 11.5445 31.4246 9.57538C29.4555 7.60625 26.7848 6.5 24 6.5C21.2152 6.5 18.5445 7.60625 16.5754 9.57538C14.6062 11.5445 13.5 14.2152 13.5 17C13.5 19.7848 14.6062 22.4555 16.5754 24.4246C18.5445 26.3938 21.2152 27.5 24 27.5Z" fill="black"/>
</svg>
