<svg width="36" height="48" viewBox="0 0 36 48" fill="none" xmlns="http://www.w3.org/2000/svg">
<path fill-rule="evenodd" clip-rule="evenodd" d="M19.4707 32.7602C52.2367 10.1462 27.8407 -7.16076 18.0007 2.95824C8.15765 -7.16076 -16.2383 10.1462 16.5307 32.7602L15.8287 34.1642C15.7845 34.2525 15.7582 34.3486 15.7512 34.447C15.7442 34.5454 15.7567 34.6442 15.7879 34.7378C15.8509 34.9269 15.9864 35.0831 16.1647 35.1722C16.3429 35.2614 16.5492 35.276 16.7382 35.213C16.9273 35.15 17.0835 35.0145 17.1727 34.8362L17.2927 34.5962C17.3197 35.1062 17.3647 35.5412 17.4457 35.9462C17.6497 36.9782 18.0697 37.8122 18.7897 39.2522L18.8287 39.3362C19.4647 40.6022 19.3747 41.8862 18.9787 43.0742C18.5737 44.2802 17.8807 45.3272 17.3767 46.0832C17.2661 46.2487 17.2257 46.4514 17.2646 46.6466C17.3034 46.8418 17.4182 47.0136 17.5837 47.1242C17.7491 47.2348 17.9518 47.2752 18.147 47.2363C18.3422 47.1975 18.5141 47.0827 18.6247 46.9172L18.6367 46.8962C19.1347 46.1522 19.9297 44.9582 20.4007 43.5512C20.8807 42.1142 21.0367 40.3982 20.1727 38.6642C19.3987 37.1192 19.0777 36.4682 18.9157 35.6522C18.861 35.3658 18.8239 35.0762 18.8047 34.7852L18.8287 34.8362C18.9178 35.0145 19.074 35.15 19.2631 35.213C19.4521 35.276 19.6584 35.2614 19.8367 35.1722C20.0149 35.0831 20.1504 34.9269 20.2134 34.7378C20.2764 34.5488 20.2618 34.3425 20.1727 34.1642L19.4677 32.7602H19.4707ZM14.1787 3.80725C10.6777 1.97724 5.77865 3.38125 3.81665 7.21224C3.10565 8.60124 2.73665 10.4522 3.21065 12.7622C3.37565 13.5722 4.61165 13.3532 4.79165 12.5492C5.64665 8.78124 8.32265 5.16324 13.7587 4.96524C14.4607 4.94124 14.8027 4.13125 14.1787 3.80725Z" fill="#2E2E2E"/>
</svg>
