<svg width="48" height="48" viewBox="0 0 48 48" fill="none" xmlns="http://www.w3.org/2000/svg">
<circle opacity="0.7" cx="24" cy="24" r="24" fill="white"/>
<path d="M29.2122 18.7944C29.1357 18.7177 29.0447 18.6568 28.9446 18.6153C28.8445 18.5737 28.7372 18.5524 28.6288 18.5524C28.5204 18.5524 28.4131 18.5737 28.313 18.6153C28.2128 18.6568 28.1219 18.7177 28.0453 18.7944L23.9984 22.833L19.9515 18.7861C19.8749 18.7095 19.784 18.6487 19.6838 18.6072C19.5837 18.5658 19.4764 18.5444 19.3681 18.5444C19.2597 18.5444 19.1524 18.5658 19.0523 18.6072C18.9522 18.6487 18.8613 18.7095 18.7846 18.7861C18.708 18.8627 18.6472 18.9537 18.6058 19.0538C18.5643 19.1539 18.543 19.2612 18.543 19.3696C18.543 19.4779 18.5643 19.5852 18.6058 19.6853C18.6472 19.7854 18.708 19.8764 18.7846 19.953L22.8315 23.9999L18.7846 28.0468C18.708 28.1234 18.6472 28.2144 18.6058 28.3145C18.5643 28.4146 18.543 28.5219 18.543 28.6302C18.543 28.7386 18.5643 28.8459 18.6058 28.946C18.6472 29.0461 18.708 29.1371 18.7846 29.2137C18.8613 29.2903 18.9522 29.3511 19.0523 29.3926C19.1524 29.434 19.2597 29.4554 19.3681 29.4554C19.4764 29.4554 19.5837 29.434 19.6838 29.3926C19.784 29.3511 19.8749 29.2903 19.9515 29.2137L23.9984 25.1668L28.0453 29.2137C28.1219 29.2903 28.2129 29.3511 28.313 29.3926C28.4131 29.434 28.5204 29.4554 28.6288 29.4554C28.7371 29.4554 28.8444 29.434 28.9445 29.3926C29.0446 29.3511 29.1356 29.2903 29.2122 29.2137C29.2888 29.1371 29.3496 29.0461 29.3911 28.946C29.4326 28.8459 29.4539 28.7386 29.4539 28.6302C29.4539 28.5219 29.4326 28.4146 29.3911 28.3145C29.3496 28.2144 29.2888 28.1234 29.2122 28.0468L25.1653 23.9999L29.2122 19.953C29.5267 19.6385 29.5267 19.1089 29.2122 18.7944Z" fill="#15161B"/>
</svg>
