<svg width="48" height="34" viewBox="0 0 48 34" fill="none" xmlns="http://www.w3.org/2000/svg">
<path d="M0 0.5V3.5H28.5V26H19.266C18.597 23.4215 16.278 21.5 13.5 21.5C10.722 21.5 8.403 23.4215 7.734 26H6V18.5H3V29H7.734C8.403 31.5785 10.722 33.5 13.5 33.5C16.278 33.5 18.597 31.5785 19.266 29H31.734C32.403 31.5785 34.722 33.5 37.5 33.5C40.278 33.5 42.597 31.5785 43.266 29H48V16.766L47.9055 16.5305L44.9055 7.5305L44.58 6.5H31.5V0.5H0ZM1.5 6.5V9.5H15V6.5H1.5ZM31.5 9.5H42.4215L45 17.1875V26H43.266C42.597 23.4215 40.278 21.5 37.5 21.5C34.722 21.5 32.403 23.4215 31.734 26H31.5V9.5ZM3 12.5V15.5H12V12.5H3ZM13.5 24.5C15.1755 24.5 16.5 25.8245 16.5 27.5C16.5 29.1755 15.1755 30.5 13.5 30.5C11.8245 30.5 10.5 29.1755 10.5 27.5C10.5 25.8245 11.8245 24.5 13.5 24.5ZM37.5 24.5C39.1755 24.5 40.5 25.8245 40.5 27.5C40.5 29.1755 39.1755 30.5 37.5 30.5C35.8245 30.5 34.5 29.1755 34.5 27.5C34.5 25.8245 35.8245 24.5 37.5 24.5Z" fill="white"/>
</svg>
