<svg width="76" height="76" viewBox="0 0 76 76" fill="none" xmlns="http://www.w3.org/2000/svg">
<path d="M37.1554 51.3422L31.9621 56.4933C30.3817 58.0533 28.2505 58.928 26.0299 58.928C23.8092 58.928 21.678 58.0533 20.0976 56.4933C19.3272 55.7246 18.7159 54.8115 18.2989 53.8062C17.8818 52.801 17.6671 51.7233 17.6671 50.635C17.6671 49.5467 17.8818 48.469 18.2989 47.4637C18.7159 46.4585 19.3272 45.5454 20.0976 44.7767L29.9987 34.96C31.5791 33.4 33.7104 32.5253 35.931 32.5253C38.1516 32.5253 40.2828 33.4 41.8632 34.96C42.8689 35.9592 43.5966 37.2035 43.9743 38.57C44.182 38.3986 44.3729 38.2077 44.5443 38L47.2676 35.2978C46.6579 34.0285 45.8369 32.8721 44.8399 31.8778C42.4684 29.5314 39.267 28.2153 35.931 28.2153C32.5949 28.2153 29.3935 29.5314 27.0221 31.8778L17.0999 41.7789C15.9311 42.9387 15.0035 44.3183 14.3705 45.8383C13.7375 47.3582 13.4116 48.9885 13.4116 50.635C13.4116 52.2815 13.7375 53.9117 14.3705 55.4317C15.0035 56.9517 15.9311 58.3313 17.0999 59.4911C19.4713 61.8375 22.6727 63.1535 26.0087 63.1535C29.3448 63.1535 32.5462 61.8375 34.9176 59.4911L42.6232 51.8489H41.5676C40.081 51.8749 38.5974 51.7046 37.1554 51.3422Z" fill="black"/>
<path d="M60.3989 16.5089C58.0274 14.1625 54.826 12.8464 51.49 12.8464C48.1539 12.8464 44.9525 14.1625 42.5811 16.5089L34.8755 24.1511H35.91C37.4074 24.1507 38.8983 24.3495 40.3433 24.7422L45.5366 19.5911C47.117 18.0311 49.2482 17.1564 51.4688 17.1564C53.6895 17.1564 55.8207 18.0311 57.4011 19.5911C58.1715 20.3598 58.7828 21.2729 59.1998 22.2782C59.6169 23.2834 59.8316 24.3611 59.8316 25.4494C59.8316 26.5378 59.6169 27.6154 59.1998 28.6207C58.7828 29.6259 58.1715 30.5391 57.4011 31.3078L47.5 41.1244C45.9196 42.6844 43.7883 43.5591 41.5677 43.5591C39.3471 43.5591 37.2159 42.6844 35.6355 41.1244C34.6298 40.1252 33.9021 38.8809 33.5244 37.5144C33.3131 37.6581 33.1152 37.8206 32.9333 38L30.21 40.7022C30.8197 41.9715 31.6407 43.1279 32.6377 44.1222C35.0092 46.4686 38.2106 47.7846 41.5466 47.7846C44.8827 47.7846 48.084 46.4686 50.4555 44.1222L60.3566 34.3055C61.5228 33.1443 62.4482 31.7642 63.0796 30.2444C63.711 28.7247 64.036 27.0952 64.036 25.4494C64.036 23.8037 63.711 22.1742 63.0796 20.6544C62.4482 19.1346 61.5228 17.7545 60.3566 16.5933L60.3989 16.5089Z" fill="black"/>
</svg>
