<svg width="40" height="41" viewBox="0 0 40 41" fill="none" xmlns="http://www.w3.org/2000/svg">
<path d="M20 0.5C8.972 0.5 0 9.472 0 20.5V28.786C0 30.834 1.794 32.5 4 32.5H6C6.53043 32.5 7.03914 32.2893 7.41421 31.9142C7.78929 31.5391 8 31.0304 8 30.5V20.214C8 19.6836 7.78929 19.1749 7.41421 18.7998C7.03914 18.4247 6.53043 18.214 6 18.214H4.184C5.296 10.474 11.956 4.5 20 4.5C28.044 4.5 34.704 10.474 35.816 18.214H34C33.4696 18.214 32.9609 18.4247 32.5858 18.7998C32.2107 19.1749 32 19.6836 32 20.214V32.5C32 34.706 30.206 36.5 28 36.5H24V34.5H16V40.5H28C32.412 40.5 36 36.912 36 32.5C38.206 32.5 40 30.834 40 28.786V20.5C40 9.472 31.028 0.5 20 0.5Z" fill="white"/>
</svg>
