<svg width="14" height="18" viewBox="0 0 14 18" fill="none" xmlns="http://www.w3.org/2000/svg">
<path d="M7.00065 13.6663C7.44268 13.6663 7.8666 13.4907 8.17916 13.1782C8.49172 12.8656 8.66732 12.4417 8.66732 11.9997C8.66732 11.5576 8.49172 11.1337 8.17916 10.8212C7.8666 10.5086 7.44268 10.333 7.00065 10.333C6.55862 10.333 6.1347 10.5086 5.82214 10.8212C5.50958 11.1337 5.33398 11.5576 5.33398 11.9997C5.33398 12.4417 5.50958 12.8656 5.82214 13.1782C6.1347 13.4907 6.55862 13.6663 7.00065 13.6663ZM12.0007 6.16634C12.4427 6.16634 12.8666 6.34194 13.1792 6.6545C13.4917 6.96706 13.6673 7.39098 13.6673 7.83301V16.1663C13.6673 16.6084 13.4917 17.0323 13.1792 17.3449C12.8666 17.6574 12.4427 17.833 12.0007 17.833H2.00065C1.55862 17.833 1.1347 17.6574 0.82214 17.3449C0.509579 17.0323 0.333984 16.6084 0.333984 16.1663V7.83301C0.333984 7.39098 0.509579 6.96706 0.82214 6.6545C1.1347 6.34194 1.55862 6.16634 2.00065 6.16634H2.83398V4.49967C2.83398 3.39461 3.27297 2.3348 4.05437 1.5534C4.83577 0.771995 5.89558 0.333008 7.00065 0.333008C7.54783 0.333008 8.08964 0.440782 8.59517 0.650176C9.10069 0.859571 9.56002 1.16649 9.94693 1.5534C10.3338 1.94031 10.6408 2.39964 10.8501 2.90516C11.0595 3.41068 11.1673 3.9525 11.1673 4.49967V6.16634H12.0007ZM7.00065 1.99967C6.33761 1.99967 5.70172 2.26307 5.23288 2.73191C4.76404 3.20075 4.50065 3.83663 4.50065 4.49967V6.16634H9.50065V4.49967C9.50065 3.83663 9.23726 3.20075 8.76842 2.73191C8.29958 2.26307 7.66369 1.99967 7.00065 1.99967Z" fill="white"/>
</svg>
