<svg width="21" height="20" viewBox="0 0 21 20" fill="none" xmlns="http://www.w3.org/2000/svg">
<path d="M10.0524 9.99999C10.5107 9.99999 10.9032 9.83666 11.2299 9.50999C11.556 9.18388 11.7191 8.79166 11.7191 8.33332C11.7191 7.87499 11.556 7.48249 11.2299 7.15582C10.9032 6.82971 10.5107 6.66666 10.0524 6.66666C9.59408 6.66666 9.20185 6.82971 8.87574 7.15582C8.54908 7.48249 8.38574 7.87499 8.38574 8.33332C8.38574 8.79166 8.54908 9.18388 8.87574 9.50999C9.20185 9.83666 9.59408 9.99999 10.0524 9.99999ZM10.0524 16.125C11.7469 14.5694 13.0038 13.1561 13.8232 11.885C14.6427 10.6144 15.0524 9.4861 15.0524 8.49999C15.0524 6.9861 14.5696 5.74638 13.6041 4.78082C12.6391 3.81582 11.4552 3.33332 10.0524 3.33332C8.64963 3.33332 7.46546 3.81582 6.49991 4.78082C5.53491 5.74638 5.05241 6.9861 5.05241 8.49999C5.05241 9.4861 5.46213 10.6144 6.28158 11.885C7.10102 13.1561 8.35796 14.5694 10.0524 16.125ZM10.0524 18.3333C7.8163 16.4305 6.1463 14.663 5.04241 13.0308C3.93796 11.3992 3.38574 9.88888 3.38574 8.49999C3.38574 6.41666 4.05602 4.75693 5.39658 3.52082C6.73658 2.28471 8.28852 1.66666 10.0524 1.66666C11.8163 1.66666 13.3682 2.28471 14.7082 3.52082C16.0488 4.75693 16.7191 6.41666 16.7191 8.49999C16.7191 9.88888 16.1671 11.3992 15.0632 13.0308C13.9588 14.663 12.2885 16.4305 10.0524 18.3333Z" fill="#717171"/>
</svg>
