<?xml version="1.0" standalone="yes"?>
<svg xmlns="http://www.w3.org/2000/svg" width="512" height="511">
<path style="fill:#ffffff; stroke:none;" d="M0 0L0 102L1 102C7.16421 93.8364 17.8186 96 27 96L84 96C91.379 96 102.055 94.0533 108.996 96.7423C120.572 101.226 122.687 130.202 125 141C125.819 144.823 126.324 153.501 130.303 155.397C134.4 157.348 141.541 156 146 156L181 156L306 156C297.976 136.829 291.751 122.261 292.004 101C292.583 52.3192 341.274 11.5511 389 16.1698C428.451 19.9876 462.07 49.1263 470.489 88C475.991 113.404 467.522 133.25 458 156C471.565 156 502.233 150.235 511 162L512 162L512 0L0 0z"/>
<path style="fill:#010101; stroke:none;" d="M306 156L182 156L147 156C142.358 156 135.474 157.261 131.144 155.397C126.643 153.459 126.117 145.196 125.21 141C122.826 129.974 120.2 118.92 117.37 108C116.102 103.104 114.431 97.9413 108.996 96.4337C100.412 94.0526 88.8898 96 80 96L19 96C10.076 96 -4.89557 97.5975 0.858025 110.956C4.48658 119.381 17.7039 117 25 117L98 117C102.797 154.145 115.474 191.55 124.116 228L150.116 337C154.371 354.948 156.912 374.847 163.76 392C166.676 399.303 174.229 403.59 177.083 410.17C179.002 414.595 168.884 426.901 167.429 432C162.17 450.43 168.064 470.956 182.004 483.907C225.004 523.857 292.093 463.921 257 417L335 417C301.026 462.426 362.502 520.785 407 486.471C412.648 482.115 417.499 476.361 420.727 470C424.891 461.795 426.015 454.062 426 445C425.984 434.824 423.13 425.197 417 417C424.153 417 434.383 418.838 440.906 415.427C446.814 412.339 447.882 402.887 442.772 398.514C438.453 394.819 431.252 396 426 396L386 396L249 396C233.435 396 206.901 401.063 193 393.442C181.341 387.05 178.632 369.12 177 357L369 357L415 357C426.054 357 436.491 357.668 445.985 350.945C458.329 342.205 461.147 322.56 465.667 309L500 206C503.455 195.636 517.285 170.21 510.258 160.109C506.772 155.098 500.331 156 495 156L458 156C466.611 141.398 472 126.065 472 109C472 81.7399 462.941 56.6125 442 38.1844C399.941 1.17242 331.321 12.5432 303.428 61C293.99 77.3963 291.911 94.4568 292.001 113C292.074 128.292 298.366 143.055 306 156z"/>
<path style="fill:#ffffff; stroke:none;" d="M374 37.4283C362.435 39.0851 351.598 43.0025 342 49.7215C285.451 89.3081 319.833 185.624 390 175.572C401.565 173.915 412.402 169.998 422 163.279C478.544 123.696 444.155 27.3781 374 37.4283z"/>
<path style="fill:#010101; stroke:none;" d="M418 77.7029C405.349 81.9606 393.259 99.7406 384 109C381.1 111.9 377.118 117.712 373 118.793C369.447 119.726 366.163 115.154 364 113C357.675 106.701 344.197 89.4459 334.318 100.228C330.224 104.696 331.964 111.747 335.344 116C342.887 125.488 362.208 150.621 376 146.486C382.74 144.466 388.205 136.795 393 132C404.741 120.259 421.368 108.141 430.106 94C435.571 85.1568 428.409 74.2 418 77.7029z"/>
<path style="fill:#ffffff; stroke:none;" d="M0 111L0 511L512 511L512 171L511 171C500.93 214.527 482.468 257.597 468.333 300C463.13 315.611 459.758 339.848 445.985 350.236C427.764 363.979 391.742 357 370 357L177 357C177.938 368.478 181.094 387.442 192.001 393.442C206.075 401.186 233.221 396 249 396L387 396L425 396C430.424 396 437.329 394.92 441.891 398.514C447.867 403.221 446.625 412.077 439.96 415.427C433.533 418.658 423.996 417 417 417C421.515 425.232 425.746 433.377 425.985 443C426.2 451.61 425.295 459.078 421.688 467C398.682 517.527 325.371 496.953 326.004 444C326.124 433.949 330.278 425.61 335 417L257 417C263.593 429.022 268.452 441.998 265.482 456C256.293 499.335 200.53 510.097 174.927 475C165.959 462.705 163.209 445.466 168.04 431C169.723 425.961 179.662 414.928 177.825 410.17C175.012 402.883 166.347 398.129 163.383 390C152.046 358.902 147.554 324.127 139.626 292C125.31 233.993 109.374 175.651 98 117L33 117C20.9717 117 9.84393 118.861 0 111M134 177C135.274 186.464 138.215 195.704 140.349 205C141.025 207.947 141.139 212.958 143.728 214.972C147.007 217.524 155.054 216 159 216L192 216C196.931 216 202.751 215.253 206.891 218.514C214.254 224.315 210.289 234.442 201.999 236.467C185.747 240.436 164.734 237 148 237L157 276L238 276C236.28 268.775 236.956 253.986 248.285 256.037C260.103 258.177 253.557 271.906 260.434 275.397C265.654 278.046 276.206 276 282 276L335 276C340.389 276 353.948 278.458 358.258 274.972C360.685 273.009 360.201 267.812 360.576 265C361.809 255.749 361.836 246.084 364 237L292 237C284.156 237 270.745 237.437 271.164 226C271.58 214.626 285.146 216 293 216L366 216L367.382 197.43L344 188.219L325 177.51L300 177L248 177C248.032 181.21 249.059 186.012 247.333 189.995C244.326 196.931 235.614 198.859 230.653 192.786C227.214 188.577 227.043 182.172 227 177L134 177M387 216L450 216L473.49 214.972L478 205L487 177C472.816 177 452.494 173.245 439 177.563C431.065 180.103 423.83 186.774 416 190.127C410.044 192.678 393.857 193.202 390.013 197.742C386.851 201.478 387.373 211.274 387 216z"/>
<path style="fill:#010101; stroke:none;" d="M238.004 216.576C225.557 220.041 231.246 239.942 243.985 236.181C256.381 232.522 250.843 213.002 238.004 216.576z"/>
<path style="fill:#ffffff; stroke:none;" d="M380 276L433 276L453.49 274.972L458 265L467 237L406 237L385.179 238.603L383.285 249L380 276M162 297C164.711 306.623 165.249 327.032 171.938 334.397C175.239 338.032 186.47 336 191 336L244 336L240 297L162 297M261 297L265 336L353 336L357 297L261 297M378 297L374 336L416 336C421.505 336 429.13 337.312 433.606 333.347C441.028 326.775 444.804 306.493 447 297L378 297M210 417.518C173.552 425.306 184.69 483.064 221 475.331C258.734 467.295 247.469 409.512 210 417.518M370 417.518C333.552 425.306 344.69 483.064 381 475.331C418.734 467.295 407.469 409.512 370 417.518z"/>
</svg>
