<?xml version="1.0" standalone="no"?>
<!DOCTYPE svg PUBLIC "-//W3C//DTD SVG 20010904//EN"
 "http://www.w3.org/TR/2001/REC-SVG-20010904/DTD/svg10.dtd">
<svg version="1.0" xmlns="http://www.w3.org/2000/svg"
 width="233.000000pt" height="233.000000pt" viewBox="0 0 233.000000 233.000000"
 preserveAspectRatio="xMidYMid meet">
<metadata>
Created by potrace 1.14, written by Peter Selinger 2001-2017
</metadata>
<g transform="translate(0.000000,233.000000) scale(0.100000,-0.100000)"
fill="#000000" stroke="none">
<path d="M365 1769 c-219 -43 -383 -263 -361 -486 24 -250 227 -429 475 -419
328 14 533 354 394 655 -18 40 -67 106 -98 134 -40 36 -122 85 -170 102 -55
19 -178 27 -240 14z"/>
<path d="M970 1325 l0 -385 290 0 290 0 0 65 0 65 -212 2 -212 3 0 100 -1 100
193 3 192 2 0 65 0 65 -189 0 c-142 0 -190 3 -193 13 -2 6 -3 44 -3 82 l0 70
207 3 207 2 -1 65 -2 65 -283 0 -283 0 0 -385z"/>
<path d="M1590 1705 c0 -3 50 -83 112 -178 62 -94 112 -179 112 -187 0 -8 -54
-96 -120 -195 -66 -99 -124 -186 -128 -192 -5 -10 14 -13 86 -13 l93 0 85 130
85 130 84 -130 85 -130 94 0 c74 0 92 3 85 13 -18 22 -245 371 -250 383 -2 7
13 38 35 71 64 94 192 293 192 298 0 3 -39 5 -87 5 l-88 0 -75 -115 -76 -114
-74 114 -75 115 -87 0 c-49 0 -88 -2 -88 -5z"/>
<path d="M164 815 c-46 -20 -74 -57 -80 -108 -12 -95 35 -157 119 -157 54 0
77 8 77 25 0 10 -7 11 -30 5 -95 -27 -166 59 -126 153 23 55 97 82 145 52 7
-3 11 2 11 14 0 15 -7 21 -22 22 -13 1 -33 3 -44 4 -12 1 -35 -3 -50 -10z"/>
<path d="M400 817 c-69 -24 -101 -119 -66 -201 19 -45 52 -66 103 -66 83 0
121 36 130 124 11 108 -68 176 -167 143z m91 -33 c48 -24 62 -126 24 -177 -16
-22 -63 -36 -96 -30 -55 11 -85 102 -55 165 25 53 75 69 127 42z"/>
<path d="M1248 816 c-87 -37 -105 -191 -28 -246 42 -30 119 -28 154 5 33 30
46 64 46 118 0 96 -88 159 -172 123z m100 -35 c40 -21 53 -100 26 -156 -30
-64 -125 -68 -154 -7 -52 111 30 216 128 163z"/>
<path d="M1513 815 c-30 -13 -51 -38 -51 -60 0 -23 22 -47 73 -80 43 -27 55
-40 55 -60 0 -35 -40 -49 -92 -34 -17 4 -30 3 -34 -3 -10 -16 17 -28 69 -28
38 0 53 5 72 25 41 40 24 83 -51 126 -42 24 -54 36 -54 55 0 33 35 49 82 36
29 -8 36 -7 34 4 -1 7 -5 16 -8 19 -12 12 -66 12 -95 0z"/>
<path d="M2211 814 c-55 -23 -55 -86 -1 -121 51 -32 90 -63 90 -72 0 -4 -6
-15 -13 -25 -15 -21 -50 -26 -85 -14 -30 10 -47 1 -31 -18 7 -9 31 -14 63 -14
42 0 57 5 74 23 40 43 25 83 -46 124 -62 36 -72 51 -54 81 11 16 70 24 94 11
15 -8 18 -6 18 11 0 11 -6 20 -12 21 -7 1 -25 2 -40 3 -14 2 -40 -3 -57 -10z"/>
<path d="M626 712 c2 -157 3 -162 17 -162 10 0 13 23 13 100 -1 55 2 100 5
100 4 0 26 -45 49 -100 24 -55 47 -100 52 -100 5 0 13 11 18 25 5 14 19 46 31
73 12 26 30 65 40 87 l18 40 -2 -112 c-3 -101 -1 -113 14 -113 15 0 17 15 17
135 l0 135 -24 0 c-13 0 -24 -5 -24 -11 0 -6 -15 -44 -34 -83 -18 -40 -37 -82
-41 -94 -3 -12 -10 -20 -14 -18 -4 3 -27 50 -50 105 -36 83 -47 101 -65 101
-20 0 -21 -4 -20 -108z"/>
<path d="M970 685 c0 -113 2 -135 15 -135 16 0 16 1 19 64 1 37 3 40 31 41 60
2 79 17 99 78 3 10 1 27 -4 37 -22 41 -40 50 -101 50 l-59 0 0 -135z m118 92
c6 -5 12 -22 12 -38 0 -33 -31 -59 -70 -59 -25 0 -26 3 -28 54 -1 49 2 55 21
58 25 4 46 -1 65 -15z"/>
<path d="M1682 685 c-1 -111 2 -135 14 -135 7 0 14 8 15 18 0 9 1 70 2 135 2
102 0 117 -14 117 -15 0 -17 -17 -17 -135z"/>
<path d="M1757 805 c-5 -11 2 -13 29 -11 19 1 38 -2 42 -8 4 -6 7 -62 7 -124
-1 -97 1 -112 14 -110 13 3 16 22 16 113 0 61 3 115 7 121 4 6 21 9 38 6 23
-3 30 0 30 12 0 14 -14 16 -89 16 -69 0 -90 -3 -94 -15z"/>
<path d="M1988 813 c-2 -5 -4 -64 -3 -133 l1 -125 72 -3 c59 -2 72 0 72 13 0
12 -12 15 -55 15 -59 0 -55 -5 -58 67 -1 26 2 28 44 29 62 2 66 3 48 17 -9 7
-33 12 -53 11 -20 -1 -36 1 -37 5 -9 83 -7 85 69 81 23 -1 32 3 32 14 0 13
-12 16 -64 16 -36 0 -66 -3 -68 -7z"/>
</g>
</svg>
