<svg width="48" height="48" viewBox="0 0 48 48" fill="none" xmlns="http://www.w3.org/2000/svg">
<path d="M4 8C4 7.46957 4.21071 6.96086 4.58579 6.58579C4.96086 6.21071 5.46957 6 6 6H42C42.5304 6 43.0391 6.21071 43.4142 6.58579C43.7893 6.96086 44 7.46957 44 8V19C42.6739 19 41.4021 19.5268 40.4645 20.4645C39.5268 21.4021 39 22.6739 39 24C39 25.3261 39.5268 26.5979 40.4645 27.5355C41.4021 28.4732 42.6739 29 44 29V40C44 40.5304 43.7893 41.0391 43.4142 41.4142C43.0391 41.7893 42.5304 42 42 42H6C5.46957 42 4.96086 41.7893 4.58579 41.4142C4.21071 41.0391 4 40.5304 4 40V8ZM16.17 38C16.3761 37.414 16.7591 36.9065 17.266 36.5474C17.7729 36.1884 18.3788 35.9955 19 35.9955C19.6212 35.9955 20.2271 36.1884 20.734 36.5474C21.2409 36.9065 21.6239 37.414 21.83 38H40V32.064C38.4976 31.3194 37.2331 30.1699 36.349 28.7451C35.4649 27.3203 34.9965 25.6768 34.9965 24C34.9965 22.3232 35.4649 20.6797 36.349 19.2549C37.2331 17.8301 38.4976 16.6806 40 15.936V10H21.83C21.6239 10.586 21.2409 11.0935 20.734 11.4526C20.2271 11.8116 19.6212 12.0045 19 12.0045C18.3788 12.0045 17.7729 11.8116 17.266 11.4526C16.7591 11.0935 16.3761 10.586 16.17 10H8V38H16.17ZM19 22C18.2044 22 17.4413 21.6839 16.8787 21.1213C16.3161 20.5587 16 19.7956 16 19C16 18.2044 16.3161 17.4413 16.8787 16.8787C17.4413 16.3161 18.2044 16 19 16C19.7956 16 20.5587 16.3161 21.1213 16.8787C21.6839 17.4413 22 18.2044 22 19C22 19.7956 21.6839 20.5587 21.1213 21.1213C20.5587 21.6839 19.7956 22 19 22ZM19 32C18.2044 32 17.4413 31.6839 16.8787 31.1213C16.3161 30.5587 16 29.7956 16 29C16 28.2044 16.3161 27.4413 16.8787 26.8787C17.4413 26.3161 18.2044 26 19 26C19.7956 26 20.5587 26.3161 21.1213 26.8787C21.6839 27.4413 22 28.2044 22 29C22 29.7956 21.6839 30.5587 21.1213 31.1213C20.5587 31.6839 19.7956 32 19 32Z" fill="#0A0E2E"/>
</svg>
