<svg width="49" height="48" viewBox="0 0 49 48" fill="none" xmlns="http://www.w3.org/2000/svg">
<path d="M45.38 24.915L40.88 14.415C40.7652 14.1439 40.5731 13.9125 40.3277 13.7498C40.0823 13.5871 39.7944 13.5002 39.5 13.5H35V10.5C35 10.1022 34.842 9.72064 34.5607 9.43934C34.2794 9.15804 33.8978 9 33.5 9H5C4.60218 9 4.22064 9.15804 3.93934 9.43934C3.65804 9.72064 3.5 10.1022 3.5 10.5V36C3.5 36.3978 3.65804 36.7794 3.93934 37.0607C4.22064 37.342 4.60218 37.5 5 37.5H8.21C8.55542 38.7711 9.3095 39.8931 10.3559 40.6931C11.4023 41.4931 12.6828 41.9265 14 41.9265C15.3172 41.9265 16.5977 41.4931 17.6441 40.6931C18.6905 39.8931 19.4446 38.7711 19.79 37.5H29.21C29.5554 38.7711 30.3095 39.8931 31.3559 40.6931C32.4023 41.4931 33.6828 41.9265 35 41.9265C36.3172 41.9265 37.5977 41.4931 38.6441 40.6931C39.6905 39.8931 40.4446 38.7711 40.79 37.5H44C44.3978 37.5 44.7794 37.342 45.0607 37.0607C45.342 36.7794 45.5 36.3978 45.5 36V25.5C45.4996 25.2989 45.4588 25.1 45.38 24.915ZM35 16.5H38.51L41.72 24H35V16.5ZM14 39C13.4067 39 12.8266 38.8241 12.3333 38.4944C11.8399 38.1648 11.4554 37.6962 11.2284 37.1481C11.0013 36.5999 10.9419 35.9967 11.0576 35.4147C11.1734 34.8328 11.4591 34.2982 11.8787 33.8787C12.2982 33.4591 12.8328 33.1734 13.4147 33.0576C13.9967 32.9419 14.5999 33.0013 15.1481 33.2284C15.6962 33.4554 16.1648 33.8399 16.4944 34.3333C16.8241 34.8266 17 35.4067 17 36C17 36.7957 16.6839 37.5587 16.1213 38.1213C15.5587 38.6839 14.7956 39 14 39ZM29.21 34.5H19.79C19.4446 33.2289 18.6905 32.1069 17.6441 31.3069C16.5977 30.5069 15.3172 30.0735 14 30.0735C12.6828 30.0735 11.4023 30.5069 10.3559 31.3069C9.3095 32.1069 8.55542 33.2289 8.21 34.5H6.5V12H32V30.84C31.317 31.2364 30.7189 31.7638 30.2401 32.3919C29.7614 33.0199 29.4113 33.7363 29.21 34.5ZM35 39C34.4067 39 33.8266 38.8241 33.3333 38.4944C32.8399 38.1648 32.4554 37.6962 32.2284 37.1481C32.0013 36.5999 31.9419 35.9967 32.0576 35.4147C32.1734 34.8328 32.4591 34.2982 32.8787 33.8787C33.2982 33.4591 33.8328 33.1734 34.4147 33.0576C34.9967 32.9419 35.5999 33.0013 36.1481 33.2284C36.6962 33.4554 37.1648 33.8399 37.4944 34.3333C37.8241 34.8266 38 35.4067 38 36C38 36.7957 37.6839 37.5587 37.1213 38.1213C36.5587 38.6839 35.7957 39 35 39ZM42.5 34.5H40.79C40.4583 33.2153 39.7101 32.0768 38.6625 31.2625C37.6148 30.4483 36.3268 30.0043 35 30V27H42.5V34.5Z" fill="#0A0E2E"/>
</svg>
