<svg width="49" height="48" viewBox="0 0 49 48" fill="none" xmlns="http://www.w3.org/2000/svg">
<path d="M8.45403 19.68C8.53448 18.6776 8.98953 17.7423 9.72857 17.0603C10.4676 16.3784 11.4364 15.9998 12.442 16H36.558C37.5636 15.9998 38.5324 16.3784 39.2715 17.0603C40.0105 17.7423 40.4656 18.6776 40.546 19.68L42.152 39.68C42.1962 40.2304 42.1259 40.784 41.9457 41.3059C41.7654 41.8278 41.4791 42.3067 41.1046 42.7125C40.7302 43.1183 40.2758 43.4422 39.7701 43.6638C39.2643 43.8854 38.7182 43.9998 38.166 44H10.834C10.2819 43.9998 9.73573 43.8854 9.22998 43.6638C8.72424 43.4422 8.26985 43.1183 7.89542 42.7125C7.52099 42.3067 7.23463 41.8278 7.05437 41.3059C6.87411 40.784 6.80385 40.2304 6.84803 39.68L8.45403 19.68V19.68Z" stroke="#0A0E2E" stroke-width="3" stroke-linecap="round" stroke-linejoin="round"/>
<path d="M32.5 22V12C32.5 9.87827 31.6571 7.84344 30.1569 6.34315C28.6566 4.84285 26.6217 4 24.5 4C22.3783 4 20.3434 4.84285 18.8431 6.34315C17.3429 7.84344 16.5 9.87827 16.5 12V22" stroke="#0A0E2E" stroke-width="3" stroke-linecap="round" stroke-linejoin="round"/>
</svg>
