<svg width="63" height="64" viewBox="0 0 63 64" fill="none" xmlns="http://www.w3.org/2000/svg">
<path d="M39.0478 41.856C38.1858 39.1745 36.7061 36.7329 34.7278 34.728C31.3918 31.36 26.7012 29.3333 21.3332 29.3333C10.6665 29.3333 2.6665 37.3333 2.6665 48V61.3333H29.3332M31.9998 50.1973L43.1732 58.6666L61.3332 34.6666M21.3332 29.3333C24.8694 29.3333 28.2608 27.9285 30.7613 25.4281C33.2617 22.9276 34.6665 19.5362 34.6665 16C34.6665 12.4637 33.2617 9.07235 30.7613 6.57187C28.2608 4.07138 24.8694 2.66663 21.3332 2.66663C17.797 2.66663 14.4056 4.07138 11.9051 6.57187C9.4046 9.07235 7.99984 12.4637 7.99984 16C7.99984 19.5362 9.4046 22.9276 11.9051 25.4281C14.4056 27.9285 17.797 29.3333 21.3332 29.3333V29.3333Z" stroke="black" stroke-width="4"/>
</svg>
