<svg width="57" height="56" viewBox="0 0 57 56" fill="none" xmlns="http://www.w3.org/2000/svg">
<g clip-path="url(#clip0_5618_20471)">
<path d="M49.3335 15.1667C48.3731 15.1661 47.4228 15.3635 46.5421 15.7465C45.6613 16.1295 44.8689 16.6898 44.2143 17.3926C43.5597 18.0954 43.0569 18.9255 42.7373 19.8312C42.4178 20.7369 42.2882 21.6987 42.3568 22.6567L37.6202 24.2433C36.8695 22.8232 35.8008 21.5957 34.4975 20.6567C33.1942 19.7177 31.6916 19.0925 30.1068 18.83V13.79C31.6036 13.3907 32.9268 12.509 33.8717 11.2814C34.8166 10.0539 35.3304 8.54908 35.3335 7C35.3335 3.12667 32.2068 0 28.3335 0C24.4602 0 21.3335 3.12667 21.3335 7C21.3335 10.2667 23.5735 12.9967 26.5835 13.79V18.83C23.3168 19.3667 20.5635 21.42 19.0702 24.2433L14.3102 22.6567C14.3335 22.4933 14.3335 22.33 14.3335 22.1667C14.3335 18.2933 11.2068 15.1667 7.3335 15.1667C3.46016 15.1667 0.333496 18.2933 0.333496 22.1667C0.333496 26.04 3.46016 29.1667 7.3335 29.1667C9.80683 29.1667 11.9535 27.8833 13.2135 25.97L17.9502 27.5567C17.4835 30.5667 18.3468 33.7633 20.4935 36.1667L17.2035 40.2967C16.3168 39.8767 15.3602 39.6667 14.3335 39.6667C10.4602 39.6667 7.3335 42.7933 7.3335 46.6667C7.3335 50.54 10.4602 53.6667 14.3335 53.6667C18.2068 53.6667 21.3335 50.54 21.3335 46.6667C21.3335 45.08 20.8202 43.6333 19.9335 42.4667L23.2235 38.3367C26.3968 40.11 30.2702 40.0867 33.4202 38.3367L36.7102 42.4667C35.8468 43.6333 35.3335 45.08 35.3335 46.6667C35.3335 50.54 38.4602 53.6667 42.3335 53.6667C46.2068 53.6667 49.3335 50.54 49.3335 46.6667C49.3335 42.7933 46.2068 39.6667 42.3335 39.6667C41.3068 39.6667 40.3502 39.8767 39.4635 40.2733L36.1735 36.1433C37.209 34.9863 37.9743 33.6136 38.4142 32.1246C38.854 30.6355 38.9574 29.0673 38.7168 27.5333L43.4535 25.9467C44.6902 27.86 46.8602 29.1433 49.3335 29.1433C53.2068 29.1433 56.3335 26.0167 56.3335 22.1433C56.3335 18.27 53.2068 15.1667 49.3335 15.1667ZM7.3335 24.5C6.05016 24.5 5.00016 23.45 5.00016 22.1667C5.00016 20.8833 6.05016 19.8333 7.3335 19.8333C8.61683 19.8333 9.66683 20.8833 9.66683 22.1667C9.66683 23.45 8.61683 24.5 7.3335 24.5ZM14.3335 49C13.0502 49 12.0002 47.95 12.0002 46.6667C12.0002 45.3833 13.0502 44.3333 14.3335 44.3333C15.6168 44.3333 16.6668 45.3833 16.6668 46.6667C16.6668 47.95 15.6168 49 14.3335 49ZM26.0002 7C26.0002 5.71667 27.0502 4.66667 28.3335 4.66667C29.6168 4.66667 30.6668 5.71667 30.6668 7C30.6668 8.28333 29.6168 9.33333 28.3335 9.33333C27.0502 9.33333 26.0002 8.28333 26.0002 7ZM28.3335 35C26.7864 35 25.3027 34.3854 24.2087 33.2915C23.1147 32.1975 22.5002 30.7138 22.5002 29.1667C22.5002 27.6196 23.1147 26.1358 24.2087 25.0419C25.3027 23.9479 26.7864 23.3333 28.3335 23.3333C29.8806 23.3333 31.3643 23.9479 32.4583 25.0419C33.5522 26.1358 34.1668 27.6196 34.1668 29.1667C34.1668 30.7138 33.5522 32.1975 32.4583 33.2915C31.3643 34.3854 29.8806 35 28.3335 35ZM42.3335 44.3333C43.6168 44.3333 44.6668 45.3833 44.6668 46.6667C44.6668 47.95 43.6168 49 42.3335 49C41.0502 49 40.0002 47.95 40.0002 46.6667C40.0002 45.3833 41.0502 44.3333 42.3335 44.3333ZM49.3335 24.5C48.0502 24.5 47.0002 23.45 47.0002 22.1667C47.0002 20.8833 48.0502 19.8333 49.3335 19.8333C50.6168 19.8333 51.6668 20.8833 51.6668 22.1667C51.6668 23.45 50.6168 24.5 49.3335 24.5Z" fill="black"/>
</g>
<defs>
<clipPath id="clip0_5618_20471">
<rect width="56" height="56" fill="white" transform="translate(0.333496)"/>
</clipPath>
</defs>
</svg>
