<svg width="64" height="64" viewBox="0 0 64 64" fill="none" xmlns="http://www.w3.org/2000/svg">
<path fill-rule="evenodd" clip-rule="evenodd" d="M22.6667 37.3507C23.3373 37.1973 25.3333 40 25.3333 40H38.6667C38.6667 40 40.6627 37.1973 41.3333 37.3507C48.5387 38.9907 56 43.7267 56 48.76V56H8V48.76C8 43.7267 15.4613 38.9907 22.6667 37.3507ZM42.6667 45.3333V42.6667H45.3333V45.3333H48V48H45.3333V50.6667H42.6667V48H40V45.3333H42.6667ZM32 32C34.829 32 37.5421 30.8762 39.5425 28.8758C41.5429 26.8754 42.6667 24.1623 42.6667 21.3333C42.6667 18.5044 41.5429 15.7912 39.5425 13.7909C37.5421 11.7905 34.829 10.6667 32 10.6667C29.171 10.6667 26.4579 11.7905 24.4575 13.7909C22.4571 15.7912 21.3333 18.5044 21.3333 21.3333C21.3333 24.1623 22.4571 26.8754 24.4575 28.8758C26.4579 30.8762 29.171 32 32 32ZM32 34.6667C39.364 34.6667 45.3333 28.6973 45.3333 21.3333C45.3333 13.9693 39.364 8 32 8C24.636 8 18.6667 13.9693 18.6667 21.3333C18.6667 28.6973 24.636 34.6667 32 34.6667Z" fill="black"/>
</svg>
