<svg width="65" height="64" viewBox="0 0 65 64" fill="none" xmlns="http://www.w3.org/2000/svg">
<path d="M23.5246 25.276C22.8712 25.544 23.6979 26.012 24.1552 26.0147C24.3633 26.0424 24.5751 26.019 24.7721 25.9466C24.9691 25.8741 25.1455 25.7547 25.286 25.5987C25.4265 25.4427 25.5269 25.2548 25.5784 25.0513C25.63 24.8478 25.6312 24.6347 25.5819 24.4307C25.1726 23.2773 23.2392 22.8133 21.7326 23.1773C19.5606 23.704 18.7232 25.4973 19.5486 26.9093C20.6312 28.7653 23.8806 29.464 26.4352 28.684C29.6139 27.7147 30.7899 25.0013 29.3686 22.8747C27.6619 20.324 23.0886 19.392 19.5166 20.584C15.3432 21.9773 13.8299 25.6067 15.8432 28.432C18.1526 31.6693 24.0432 32.8347 28.6126 31.2333C33.7726 29.4267 35.6192 24.8867 33.0179 21.376C30.1179 17.4573 22.9232 16.0613 17.3672 18.0667C11.2312 20.2813 9.05389 25.7213 12.2339 29.9147C15.7179 34.5067 24.2072 36.1307 30.7406 33.7253C37.8432 31.108 40.3499 24.7733 36.5939 19.9067C32.5312 14.6453 22.7566 12.792 15.2566 15.5973C7.18989 18.6133 4.35655 25.8373 8.68589 31.372C11.4392 34.8933 16.6779 37.256 22.4139 37.6493" stroke="black" stroke-width="2" stroke-linecap="round" stroke-linejoin="round"/>
<path d="M22.4138 37.6493H58.6672V49.7067H22.3205C13.4965 49.7067 6.67383 43.8267 6.67383 36.1427V25.5933M13.4552 47.144V44.1307M17.9765 48.9533V42.924M22.4978 49.7067V46.6933M27.0192 49.7067V43.6773M31.5392 49.7067V46.6933M36.0618 49.7067V43.6773M40.5818 49.7067V46.6933M49.6245 49.7067V46.6933M45.1045 49.7067V43.6773M54.1458 49.7067V43.6773M38.3218 37.4987V24.388" stroke="black" stroke-width="2" stroke-linecap="round" stroke-linejoin="round"/>
</svg>
