<svg width="64" height="64" viewBox="0 0 64 64" fill="none" xmlns="http://www.w3.org/2000/svg">
<path fill-rule="evenodd" clip-rule="evenodd" d="M37.9 12.8C37.9 14.073 37.3943 15.2939 36.4941 16.1941C35.5939 17.0943 34.373 17.6 33.1 17.6C31.827 17.6 30.6061 17.0943 29.7059 16.1941C28.8057 15.2939 28.3 14.073 28.3 12.8C28.3 11.527 28.8057 10.3061 29.7059 9.40589C30.6061 8.50571 31.827 8 33.1 8C34.373 8 35.5939 8.50571 36.4941 9.40589C37.3943 10.3061 37.9 11.527 37.9 12.8ZM50.6667 37.3333H31.6693L37.6507 43.2347C37.8936 43.4745 38.0882 43.7588 38.224 44.072L41.78 52.272C41.9194 52.5933 41.9941 52.9389 41.9999 53.2891C42.0057 53.6393 41.9425 53.9872 41.8139 54.3129C41.6852 54.6387 41.4937 54.9359 41.2502 55.1876C41.0067 55.4393 40.716 55.6406 40.3947 55.78C40.0734 55.9194 39.7278 55.9941 39.3776 55.9999C39.0274 56.0057 38.6795 55.9425 38.3538 55.8139C38.028 55.6852 37.7308 55.4937 37.4791 55.2502C37.2273 55.0067 37.026 54.716 36.8867 54.3947L33.536 46.6667L24.076 37.3333H13.3333C12.6261 37.3333 11.9478 37.6143 11.4477 38.1144C10.9476 38.6145 10.6667 39.2928 10.6667 40V56H8V40C8 38.5855 8.5619 37.229 9.5621 36.2288C10.5623 35.2286 11.9188 34.6667 13.3333 34.6667H21.2853C20.2867 31.304 20.6533 27.8293 21.4413 25.1413C21.864 23.7 22.4347 22.3867 23.0733 21.3387C23.3852 20.8167 23.7507 20.3287 24.164 19.8827C24.5413 19.484 25.1107 18.9827 25.8707 18.7C27.5267 18.0853 29.2627 18.132 30.8107 18.932C32.2947 19.7 33.34 21.0187 34.0173 22.4733C34.2973 23.0733 34.5547 23.6333 34.796 24.1573V24.1587C35.3827 25.4253 35.872 26.4893 36.3427 27.4253C37.004 28.74 37.5267 29.5907 38.0333 30.18C38.496 30.72 38.948 31.0427 39.524 31.268C40.1507 31.5133 41.052 31.6907 42.48 31.7333C42.8459 31.7443 43.2056 31.8305 43.5368 31.9865C43.8679 32.1425 44.1634 32.365 44.4048 32.6402C44.6462 32.9154 44.8283 33.2373 44.9399 33.586C45.0515 33.9346 45.0901 34.3025 45.0533 34.6667H50.6667C52.0812 34.6667 53.4377 35.2286 54.4379 36.2288C55.4381 37.229 56 38.5855 56 40V56H53.3333V40C53.3333 39.2928 53.0524 38.6145 52.5523 38.1144C52.0522 37.6143 51.3739 37.3333 50.6667 37.3333ZM32.484 31.5027L31.7973 34.6667H34.9867C34.6293 34.3535 34.2951 34.0148 33.9867 33.6533C33.4226 32.9827 32.9197 32.263 32.484 31.5027ZM21.9813 39.6973L26.3813 43.9187L24.7187 49.532C24.652 49.76 24.5533 49.9787 24.428 50.18L21.5987 54.74C21.2256 55.341 20.6291 55.7691 19.9403 55.9303C19.2515 56.0915 18.527 55.9724 17.926 55.5993C17.325 55.2263 16.8969 54.6297 16.7357 53.941C16.5745 53.2522 16.6936 52.5276 17.0667 51.9267L19.7067 47.6733L21.496 41.636L21.9813 39.6973Z" fill="black"/>
</svg>
